<svg xmlns="http://www.w3.org/2000/svg" xmlns:xlink="http://www.w3.org/1999/xlink" width="500" zoomAndPan="magnify" viewBox="0 0 375 374.999991" height="500" preserveAspectRatio="xMidYMid meet" version="1.0"><defs><clipPath id="c86aa24da6"><path d="M 113.289062 111.535156 L 270.675781 111.535156 L 270.675781 268.921875 L 113.289062 268.921875 Z M 113.289062 111.535156 " clip-rule="nonzero"/></clipPath><clipPath id="7aaf03334f"><path d="M 191.980469 111.535156 C 148.523438 111.535156 113.289062 146.769531 113.289062 190.230469 C 113.289062 233.691406 148.523438 268.921875 191.980469 268.921875 C 235.441406 268.921875 270.675781 233.691406 270.675781 190.230469 C 270.675781 146.769531 235.441406 111.535156 191.980469 111.535156 Z M 191.980469 111.535156 " clip-rule="nonzero"/></clipPath><clipPath id="a99e43619b"><path d="M 154 136 L 221 136 L 221 245.871094 L 154 245.871094 Z M 154 136 " clip-rule="nonzero"/></clipPath></defs><g clip-path="url(#c86aa24da6)"><g clip-path="url(#7aaf03334f)"><path fill="#ffffff" d="M 113.289062 111.535156 L 270.675781 111.535156 L 270.675781 268.921875 L 113.289062 268.921875 Z M 113.289062 111.535156 " fill-opacity="1" fill-rule="nonzero"/></g></g><g clip-path="url(#a99e43619b)"><path fill="#374f59" d="M 157.96875 183.292969 L 201.957031 139.304688 C 206.125 135.136719 212.894531 135.136719 217.0625 139.304688 C 221.226562 143.472656 221.226562 150.242188 217.0625 154.40625 L 180.632812 190.855469 L 217.0625 227.300781 C 221.226562 231.46875 221.226562 238.234375 217.0625 242.402344 C 215.042969 244.421875 212.367188 245.53125 209.519531 245.53125 C 206.671875 245.53125 203.976562 244.421875 201.957031 242.402344 L 157.96875 198.414062 C 153.804688 194.25 153.804688 187.460938 157.96875 183.292969 Z M 157.96875 183.292969 " fill-opacity="1" fill-rule="nonzero"/></g></svg>