<svg version="1.0" preserveAspectRatio="xMidYMid meet" viewBox="113.4 99.740997606216 158.25 158.249996202" zoomAndPan="magnify" xmlns:xlink="http://www.w3.org/1999/xlink" xmlns="http://www.w3.org/2000/svg" style="max-height: 500px" width="158.25" height="158.249996202"><defs><clipPath id="cdb5f73c2d"><path clip-rule="nonzero" d="M 116.617188 103.855469 L 266.617188 103.855469 L 266.617188 253.855469 L 116.617188 253.855469 Z M 116.617188 103.855469"/></clipPath></defs><g clip-path="url(#cdb5f73c2d)"><path fill-rule="nonzero" fill-opacity="1" d="M 191.550781 103.808594 C 150.140625 103.808594 116.574219 137.378906 116.574219 178.789062 C 116.574219 220.199219 150.140625 253.769531 191.550781 253.769531 C 232.960938 253.769531 266.53125 220.195312 266.53125 178.789062 C 266.53125 137.378906 232.960938 103.808594 191.550781 103.808594 Z M 225.773438 184.394531 C 217.390625 193.710938 191.632812 214.640625 191.632812 214.640625 L 191.46875 214.640625 C 191.46875 214.640625 165.714844 193.710938 157.335938 184.394531 C 149.695312 175.90625 149.257812 163.222656 157.335938 155.148438 C 165.410156 147.074219 178.503906 147.074219 186.578125 155.148438 L 191.46875 160.039062 L 191.550781 159.957031 L 191.632812 160.039062 L 196.527344 155.148438 C 204.601562 147.074219 217.695312 147.074219 225.773438 155.148438 C 233.847656 163.226562 233.410156 175.90625 225.773438 184.394531 Z M 225.773438 184.394531" fill="#ffffff"/></g></svg>