<svg version="1.0" preserveAspectRatio="xMidYMid meet" viewBox="112.35000000000001 113.690247271434 153 157.49999622" zoomAndPan="magnify" xmlns:xlink="http://www.w3.org/1999/xlink" xmlns="http://www.w3.org/2000/svg" style="max-height: 500px" width="153" height="157.49999622"><path fill-rule="nonzero" fill-opacity="1" d="M 259.28125 247.675781 L 219.90625 208.300781 C 236.398438 186.160156 234.660156 154.640625 214.574219 134.554688 C 192.511719 112.492188 156.617188 112.492188 134.554688 134.554688 C 112.492188 156.617188 112.492188 192.511719 134.554688 214.574219 C 154.640625 234.660156 186.160156 236.398438 208.300781 219.90625 L 247.675781 259.28125 C 250.882812 262.488281 256.074219 262.488281 259.28125 259.28125 C 262.488281 256.074219 262.488281 250.882812 259.28125 247.675781 Z M 142.292969 206.839844 C 124.496094 189.042969 124.496094 160.085938 142.292969 142.292969 C 160.085938 124.496094 189.042969 124.496094 206.839844 142.292969 C 224.632812 160.085938 224.632812 189.042969 206.839844 206.839844 C 189.042969 224.632812 160.085938 224.632812 142.292969 206.839844 Z M 142.292969 206.839844" fill="#ffffff"/><path fill-rule="nonzero" fill-opacity="1" d="M 139.390625 178.386719 C 137.539062 178.386719 136.039062 176.886719 136.039062 175.035156 C 136.039062 154.039062 153.117188 136.960938 174.113281 136.960938 C 175.964844 136.960938 177.464844 138.460938 177.464844 140.3125 C 177.464844 142.164062 175.964844 143.664062 174.113281 143.664062 C 156.816406 143.664062 142.742188 157.738281 142.742188 175.035156 C 142.742188 176.886719 141.242188 178.386719 139.390625 178.386719 Z M 139.390625 178.386719" fill="#ffffff"/></svg>