<svg version="1.0" preserveAspectRatio="xMidYMid meet" viewBox="110.25 110.84099733981601 154.5 159.74999616600002" zoomAndPan="magnify" xmlns:xlink="http://www.w3.org/1999/xlink" xmlns="http://www.w3.org/2000/svg" style="max-height: 500px" width="154.5" height="159.74999616600002"><defs><clipPath id="101ee7e00c"><path clip-rule="nonzero" d="M 112.53125 112.5 L 262.46875 112.5 L 262.46875 193.199219 L 112.53125 193.199219 Z M 112.53125 112.5"/></clipPath><clipPath id="c05da6cbf8"><path clip-rule="nonzero" d="M 132 135 L 243 135 L 243 262.5 L 132 262.5 Z M 132 135"/></clipPath></defs><g clip-path="url(#101ee7e00c)"><path fill-rule="nonzero" fill-opacity="1" d="M 261.773438 186.105469 C 262.703125 185.175781 262.703125 183.675781 261.773438 182.746094 L 194.371094 115.34375 C 190.582031 111.550781 184.433594 111.550781 180.640625 115.34375 L 177.816406 118.171875 L 113.226562 182.746094 C 112.296875 183.675781 112.296875 185.179688 113.226562 186.105469 L 119.558594 192.4375 C 120.488281 193.367188 121.988281 193.367188 122.917969 192.4375 L 185.695312 129.671875 C 186.695312 128.671875 188.320312 128.671875 189.320312 129.671875 L 252.082031 192.4375 C 253.011719 193.367188 254.515625 193.367188 255.441406 192.4375 L 261.773438 186.105469" fill="#ffffff"/></g><path fill-rule="nonzero" fill-opacity="1" d="M 238.347656 163.867188 L 218.324219 156.605469 L 218.324219 120.308594 C 218.324219 118.945312 219.433594 117.835938 220.796875 117.835938 L 235.875 117.835938 C 237.238281 117.835938 238.347656 118.945312 238.347656 120.308594 L 238.347656 163.867188" fill="#ffffff"/><g clip-path="url(#c05da6cbf8)"><path fill-rule="nonzero" fill-opacity="1" d="M 239.566406 186.246094 L 188.945312 135.628906 C 188.152344 134.832031 186.863281 134.832031 186.070312 135.628906 L 135.449219 186.246094 C 133.632812 188.0625 132.617188 190.523438 132.617188 193.089844 L 132.617188 259.203125 C 132.617188 261.023438 134.09375 262.5 135.914062 262.5 L 168.078125 262.5 C 170.101562 262.5 171.742188 260.859375 171.742188 258.835938 L 171.742188 211.058594 C 171.742188 210.542969 172.160156 210.128906 172.675781 210.128906 L 202.339844 210.128906 C 202.855469 210.128906 203.273438 210.542969 203.273438 211.058594 L 203.273438 258.835938 C 203.273438 260.859375 204.914062 262.5 206.9375 262.5 L 239.101562 262.5 C 240.921875 262.5 242.398438 261.023438 242.398438 259.203125 L 242.398438 193.089844 C 242.398438 190.523438 241.378906 188.0625 239.566406 186.246094" fill="#ffffff"/></g></svg>