<svg version="1.0" preserveAspectRatio="xMidYMid meet" viewBox="108.3 108.14099740461599 157.5 152.24999634600002" zoomAndPan="magnify" xmlns:xlink="http://www.w3.org/1999/xlink" xmlns="http://www.w3.org/2000/svg" style="max-height: 500px" width="157.5" height="152.24999634600002"><defs><clipPath id="9a59072017"><path clip-rule="nonzero" d="M 141 117.136719 L 262.5 117.136719 L 262.5 232 L 141 232 Z M 141 117.136719"/></clipPath><clipPath id="245fd5f09d"><path clip-rule="nonzero" d="M 112.5 127 L 244 127 L 244 258 L 112.5 258 Z M 112.5 127"/></clipPath></defs><g clip-path="url(#9a59072017)"><path fill-rule="nonzero" fill-opacity="1" d="M 141.371094 183.394531 C 141.53125 181.535156 142.304688 179.886719 143.449219 178.390625 C 147.46875 173.105469 156.480469 170.683594 162.785156 174.582031 C 166.496094 176.878906 169.472656 179.832031 171.953125 183.328125 C 174.011719 186.230469 175.871094 189.277344 177.871094 192.34375 C 179.269531 190.359375 180.679688 188.324219 182.128906 186.308594 C 194.542969 169.019531 208.179688 152.785156 223.996094 138.476562 C 233.695312 129.699219 244.828125 123.179688 256.804688 118.023438 C 258.875 117.128906 260.601562 117.480469 262.378906 119.273438 C 261.566406 120.03125 260.757812 120.78125 259.953125 121.539062 C 249.492188 131.417969 239.257812 141.523438 229.96875 152.511719 C 224.652344 158.796875 219.722656 165.414062 214.648438 171.902344 C 204.4375 184.976562 196.792969 199.679688 188.113281 213.730469 C 184.761719 219.152344 181.441406 224.597656 178.085938 230.019531 C 176.753906 232.171875 175 232.140625 173.660156 229.941406 C 169.320312 222.792969 165.894531 215.203125 162.660156 207.507812 C 159.960938 201.085938 156.925781 194.820312 153.074219 188.984375 C 151.164062 186.097656 148.917969 183.722656 145.226562 183.40625 C 143.980469 183.304688 142.714844 183.394531 141.371094 183.394531 Z M 141.371094 183.394531" fill="#ffffff"/></g><g clip-path="url(#245fd5f09d)"><path fill-rule="nonzero" fill-opacity="1" d="M 235.296875 161.027344 L 225.121094 171.203125 C 228.0625 177.691406 229.691406 184.894531 229.691406 192.480469 C 229.691406 221.046875 206.539062 244.203125 177.96875 244.203125 C 149.398438 244.203125 126.246094 221.046875 126.246094 192.480469 C 126.246094 163.910156 149.398438 140.753906 177.96875 140.753906 C 185.109375 140.753906 191.910156 142.203125 198.09375 144.820312 L 208.34375 134.570312 C 199.269531 129.796875 188.929688 127.101562 177.96875 127.101562 C 141.859375 127.101562 112.589844 156.371094 112.589844 192.480469 C 112.589844 228.585938 141.859375 257.855469 177.96875 257.855469 C 214.074219 257.855469 243.347656 228.582031 243.347656 192.476562 C 243.347656 181.078125 240.429688 170.355469 235.296875 161.027344 Z M 235.296875 161.027344" fill="#ffffff"/></g></svg>