<svg version="1.0" preserveAspectRatio="xMidYMid meet" viewBox="160.5 108.14099740461599 57 158.999996184" zoomAndPan="magnify" xmlns:xlink="http://www.w3.org/1999/xlink" xmlns="http://www.w3.org/2000/svg" style="max-height: 500px" width="57" height="158.999996184"><defs><clipPath id="920d3375b4"><path clip-rule="nonzero" d="M 164.0625 112.5 L 211 112.5 L 211 262.5 L 164.0625 262.5 Z M 164.0625 112.5"/></clipPath></defs><g clip-path="url(#920d3375b4)"><path fill-rule="nonzero" fill-opacity="1" d="M 177.398438 125.152344 C 177.398438 125.164062 177.398438 125.179688 177.398438 125.191406 L 177.398438 222.101562 C 177.398438 222.882812 177.03125 223.621094 176.40625 224.09375 C 171.734375 227.617188 169.058594 232.988281 169.058594 238.832031 C 169.058594 249.007812 177.335938 257.285156 187.515625 257.285156 C 197.691406 257.285156 205.972656 249.007812 205.972656 238.832031 C 205.972656 232.988281 203.292969 227.617188 198.621094 224.089844 C 198 223.621094 197.632812 222.882812 197.632812 222.101562 L 197.632812 125.179688 C 197.632812 121.058594 193.09375 117.707031 187.515625 117.707031 C 181.949219 117.707031 177.417969 121.042969 177.398438 125.152344 Z M 187.515625 262.269531 C 174.589844 262.269531 164.074219 251.753906 164.074219 238.832031 C 164.074219 231.835938 167.097656 225.371094 172.414062 220.902344 L 172.414062 125.222656 C 172.414062 125.207031 172.414062 125.191406 172.414062 125.179688 C 172.414062 118.3125 179.1875 112.722656 187.515625 112.722656 C 195.839844 112.722656 202.613281 118.308594 202.613281 125.179688 L 202.613281 220.902344 C 207.929688 225.371094 210.953125 231.835938 210.953125 238.832031 C 210.953125 251.753906 200.4375 262.269531 187.515625 262.269531" fill="#ffffff"/></g><path fill-rule="nonzero" fill-opacity="1" d="M 195.699219 227.960938 C 193.863281 226.574219 192.78125 224.40625 192.78125 222.101562 L 192.78125 171.945312 C 192.78125 171.042969 190.730469 169.324219 187.515625 169.324219 C 184.324219 169.324219 182.28125 171.015625 182.246094 171.921875 C 182.246094 171.933594 182.246094 171.945312 182.246094 171.953125 L 182.246094 222.101562 C 182.246094 224.40625 181.167969 226.574219 179.328125 227.960938 C 175.882812 230.5625 173.90625 234.523438 173.90625 238.832031 C 173.90625 246.332031 180.011719 252.4375 187.515625 252.4375 C 195.015625 252.4375 201.121094 246.332031 201.121094 238.832031 C 201.121094 234.523438 199.144531 230.5625 195.699219 227.960938" fill="#ffffff"/></svg>