<svg version="1.0" preserveAspectRatio="xMidYMid meet" viewBox="104.7 106.1999974512 165.75 164.24999605800002" zoomAndPan="magnify" xmlns:xlink="http://www.w3.org/1999/xlink" xmlns="http://www.w3.org/2000/svg" style="max-height: 500px" width="165.75" height="164.24999605800002"><defs><clipPath id="ad49e0c8ba"><path clip-rule="nonzero" d="M 112.5 112.5 L 262.5 112.5 L 262.5 262.5 L 112.5 262.5 Z M 112.5 112.5"/></clipPath></defs><g clip-path="url(#ad49e0c8ba)"><path fill-rule="nonzero" fill-opacity="1" d="M 261.765625 198.230469 C 261.277344 197.742188 260.6875 197.5 260 197.5 L 259.996094 197.5 L 257.5 197.503906 C 253.972656 197.574219 250.683594 198.496094 247.628906 200.269531 C 246.492188 201 245.273438 201.554688 243.976562 201.933594 C 242.679688 202.316406 241.351562 202.503906 240 202.503906 C 238.648438 202.503906 237.320312 202.316406 236.023438 201.933594 C 234.726562 201.554688 233.507812 201 232.371094 200.269531 C 229.316406 198.496094 226.027344 197.574219 222.5 197.503906 L 222.5 197.5 C 221.375 197.417969 220.269531 197.234375 219.179688 196.953125 C 218.085938 196.671875 217.03125 196.296875 216.003906 195.828125 C 214.980469 195.359375 214.007812 194.804688 213.082031 194.160156 C 212.15625 193.515625 211.296875 192.796875 210.5 192 C 209.703125 191.203125 208.984375 190.34375 208.339844 189.417969 C 207.695312 188.492188 207.140625 187.519531 206.671875 186.496094 C 206.203125 185.46875 205.828125 184.414062 205.546875 183.320312 C 205.265625 182.230469 205.082031 181.125 205 180 C 205 171.191406 207.621094 168.144531 208.453125 167.394531 C 209.714844 167.285156 210.910156 166.941406 212.039062 166.375 C 213.171875 165.808594 214.15625 165.050781 215 164.109375 C 215.671875 164.871094 216.441406 165.515625 217.308594 166.042969 C 218.175781 166.570312 219.101562 166.957031 220.089844 167.203125 C 221.074219 167.449219 222.074219 167.542969 223.089844 167.484375 C 224.101562 167.421875 225.085938 167.214844 226.035156 166.855469 C 226.984375 166.496094 227.859375 166.003906 228.660156 165.378906 C 229.460938 164.753906 230.148438 164.023438 230.726562 163.1875 C 231.304688 162.351562 231.746094 161.449219 232.046875 160.476562 C 232.347656 159.507812 232.5 158.515625 232.5 157.5 C 232.5 133.527344 209.136719 112.5 182.5 112.5 C 136.542969 112.5 112.5 151.488281 112.5 190 L 112.5 255 C 112.5 255.492188 112.550781 255.980469 112.644531 256.460938 C 112.742188 256.945312 112.882812 257.414062 113.074219 257.867188 C 113.261719 258.324219 113.492188 258.753906 113.765625 259.164062 C 114.039062 259.574219 114.351562 259.953125 114.699219 260.300781 C 115.046875 260.648438 115.425781 260.960938 115.835938 261.234375 C 116.246094 261.507812 116.675781 261.738281 117.132812 261.925781 C 117.585938 262.117188 118.054688 262.257812 118.539062 262.355469 C 119.019531 262.449219 119.507812 262.5 120 262.5 L 255 262.5 C 255.492188 262.5 255.980469 262.449219 256.460938 262.355469 C 256.945312 262.257812 257.414062 262.117188 257.867188 261.925781 C 258.324219 261.738281 258.753906 261.507812 259.164062 261.234375 C 259.574219 260.960938 259.953125 260.648438 260.300781 260.300781 C 260.648438 259.953125 260.960938 259.574219 261.234375 259.164062 C 261.507812 258.753906 261.738281 258.324219 261.925781 257.867188 C 262.117188 257.414062 262.257812 256.945312 262.355469 256.460938 C 262.449219 255.980469 262.5 255.492188 262.5 255 L 262.5 200 C 262.5 199.308594 262.253906 198.71875 261.765625 198.230469 Z M 257.5 237.503906 C 253.972656 237.574219 250.683594 238.496094 247.628906 240.269531 C 246.492188 241 245.273438 241.554688 243.976562 241.933594 C 242.679688 242.316406 241.351562 242.503906 240 242.503906 C 238.648438 242.503906 237.320312 242.316406 236.023438 241.933594 C 234.726562 241.554688 233.507812 241 232.371094 240.269531 C 230.882812 239.363281 229.300781 238.675781 227.625 238.207031 C 225.949219 237.738281 224.242188 237.503906 222.5 237.503906 C 220.761719 237.503906 219.050781 237.738281 217.375 238.207031 C 215.699219 238.675781 214.117188 239.363281 212.632812 240.265625 C 211.492188 240.996094 210.273438 241.550781 208.976562 241.933594 C 207.679688 242.3125 206.351562 242.503906 205 242.503906 C 203.648438 242.503906 202.324219 242.3125 201.023438 241.933594 C 199.726562 241.550781 198.507812 240.996094 197.371094 240.265625 C 194.316406 238.496094 191.027344 237.574219 187.5 237.5 L 187.496094 237.5 C 183.96875 237.570312 180.679688 238.492188 177.628906 240.261719 C 175.28125 241.675781 172.738281 242.421875 170 242.5 C 167.261719 242.421875 164.714844 241.675781 162.367188 240.261719 C 159.316406 238.492188 156.027344 237.570312 152.5 237.5 C 148.972656 237.570312 145.683594 238.496094 142.628906 240.265625 C 140.28125 241.675781 137.738281 242.421875 135 242.503906 C 132.261719 242.421875 129.71875 241.679688 127.371094 240.265625 C 124.316406 238.496094 121.027344 237.570312 117.5 237.5 L 117.5 222.5 C 120.238281 222.578125 122.785156 223.324219 125.132812 224.734375 C 128.183594 226.507812 131.472656 227.429688 135 227.503906 C 138.527344 227.429688 141.816406 226.507812 144.867188 224.738281 C 147.214844 223.324219 149.761719 222.578125 152.5 222.5 C 155.238281 222.578125 157.785156 223.324219 160.132812 224.734375 C 163.183594 226.507812 166.472656 227.429688 170 227.5 C 173.527344 227.425781 176.816406 226.503906 179.867188 224.734375 C 182.214844 223.324219 184.757812 222.578125 187.496094 222.5 L 187.5 222.5 C 190.238281 222.578125 192.785156 223.324219 195.132812 224.734375 C 196.621094 225.640625 198.199219 226.328125 199.875 226.796875 C 201.550781 227.265625 203.261719 227.503906 205 227.503906 C 206.742188 227.503906 208.449219 227.269531 210.125 226.796875 C 211.800781 226.328125 213.382812 225.644531 214.867188 224.738281 C 216.007812 224.007812 217.226562 223.453125 218.523438 223.074219 C 219.820312 222.691406 221.148438 222.503906 222.5 222.503906 C 223.851562 222.503906 225.179688 222.691406 226.476562 223.074219 C 227.777344 223.453125 228.996094 224.007812 230.132812 224.738281 C 231.621094 225.644531 233.199219 226.332031 234.875 226.800781 C 236.550781 227.269531 238.261719 227.503906 240 227.503906 C 241.742188 227.503906 243.449219 227.269531 245.125 226.800781 C 246.800781 226.332031 248.378906 225.644531 249.867188 224.738281 C 252.214844 223.328125 254.761719 222.582031 257.5 222.503906 Z M 230.132812 204.738281 C 231.621094 205.644531 233.199219 206.332031 234.875 206.800781 C 236.550781 207.269531 238.261719 207.503906 240 207.503906 C 241.738281 207.503906 243.449219 207.269531 245.125 206.800781 C 246.800781 206.332031 248.378906 205.644531 249.867188 204.738281 C 252.214844 203.328125 254.761719 202.582031 257.5 202.503906 L 257.5 217.503906 C 253.972656 217.574219 250.683594 218.496094 247.628906 220.269531 C 246.492188 221 245.273438 221.554688 243.976562 221.933594 C 242.679688 222.316406 241.351562 222.503906 240 222.503906 C 238.648438 222.503906 237.320312 222.316406 236.023438 221.933594 C 234.726562 221.554688 233.507812 221 232.371094 220.269531 C 230.882812 219.363281 229.300781 218.675781 227.625 218.207031 C 225.949219 217.738281 224.242188 217.503906 222.5 217.503906 C 220.761719 217.503906 219.050781 217.738281 217.375 218.207031 C 215.699219 218.675781 214.117188 219.363281 212.632812 220.265625 C 211.492188 220.996094 210.273438 221.550781 208.976562 221.933594 C 207.679688 222.3125 206.351562 222.503906 205 222.503906 C 203.648438 222.503906 202.324219 222.3125 201.023438 221.933594 C 199.726562 221.550781 198.507812 220.996094 197.371094 220.265625 C 194.316406 218.496094 191.027344 217.574219 187.5 217.5 L 187.496094 217.5 C 183.96875 217.570312 180.679688 218.492188 177.628906 220.261719 C 175.28125 221.675781 172.738281 222.421875 170 222.5 C 167.261719 222.421875 164.714844 221.675781 162.367188 220.261719 C 159.316406 218.492188 156.027344 217.570312 152.5 217.5 C 148.972656 217.570312 145.683594 218.496094 142.628906 220.265625 C 140.28125 221.675781 137.738281 222.421875 135 222.503906 C 132.261719 222.421875 129.71875 221.679688 127.371094 220.265625 C 124.316406 218.496094 121.027344 217.570312 117.5 217.5 L 117.5 202.5 C 120.238281 202.578125 122.785156 203.324219 125.132812 204.734375 C 128.183594 206.507812 131.472656 207.429688 135 207.503906 C 138.527344 207.429688 141.816406 206.507812 144.867188 204.738281 C 147.214844 203.324219 149.761719 202.578125 152.5 202.5 C 155.238281 202.578125 157.785156 203.324219 160.132812 204.734375 C 163.183594 206.507812 166.472656 207.429688 170 207.5 C 173.527344 207.425781 176.816406 206.503906 179.867188 204.734375 C 182.214844 203.324219 184.757812 202.578125 187.496094 202.5 L 187.5 202.5 C 190.238281 202.578125 192.785156 203.324219 195.132812 204.734375 C 196.621094 205.640625 198.199219 206.328125 199.875 206.796875 C 201.550781 207.265625 203.261719 207.503906 205 207.503906 C 206.742188 207.503906 208.449219 207.269531 210.125 206.800781 C 211.800781 206.328125 213.382812 205.644531 214.867188 204.738281 C 216.007812 204.007812 217.226562 203.453125 218.523438 203.074219 C 219.820312 202.691406 221.148438 202.503906 222.5 202.503906 C 223.851562 202.503906 225.179688 202.691406 226.476562 203.074219 C 227.777344 203.453125 228.996094 204.007812 230.132812 204.738281 Z M 182.5 117.5 C 206.050781 117.5 227.5 136.566406 227.5 157.5 C 227.5 157.828125 227.46875 158.152344 227.402344 158.476562 C 227.339844 158.796875 227.246094 159.109375 227.121094 159.414062 C 226.992188 159.714844 226.839844 160.003906 226.65625 160.277344 C 226.476562 160.550781 226.269531 160.804688 226.035156 161.035156 C 225.804688 161.269531 225.550781 161.476562 225.277344 161.65625 C 225.003906 161.839844 224.714844 161.992188 224.414062 162.121094 C 224.109375 162.246094 223.796875 162.339844 223.476562 162.402344 C 223.152344 162.46875 222.828125 162.5 222.5 162.5 C 222.171875 162.5 221.847656 162.46875 221.523438 162.402344 C 221.203125 162.339844 220.890625 162.246094 220.585938 162.121094 C 220.285156 161.992188 219.996094 161.839844 219.722656 161.65625 C 219.449219 161.476562 219.195312 161.269531 218.964844 161.035156 C 218.730469 160.804688 218.523438 160.550781 218.34375 160.277344 C 218.160156 160.003906 218.007812 159.714844 217.878906 159.414062 C 217.753906 159.109375 217.660156 158.796875 217.597656 158.476562 C 217.53125 158.152344 217.5 157.828125 217.5 157.5 C 217.5 157.167969 217.4375 156.847656 217.308594 156.542969 C 217.183594 156.238281 217.003906 155.964844 216.769531 155.730469 C 216.535156 155.496094 216.261719 155.316406 215.957031 155.191406 C 215.648438 155.0625 215.332031 155 215 155 C 214.667969 155 214.347656 155.0625 214.042969 155.191406 C 213.738281 155.316406 213.464844 155.496094 213.230469 155.730469 C 212.996094 155.964844 212.816406 156.238281 212.691406 156.542969 C 212.5625 156.847656 212.5 157.167969 212.5 157.5 C 212.5 157.828125 212.46875 158.152344 212.402344 158.476562 C 212.339844 158.796875 212.246094 159.109375 212.121094 159.414062 C 211.992188 159.714844 211.839844 160.003906 211.65625 160.277344 C 211.476562 160.550781 211.269531 160.804688 211.035156 161.035156 C 210.804688 161.269531 210.550781 161.476562 210.277344 161.65625 C 210.003906 161.839844 209.714844 161.992188 209.414062 162.121094 C 209.109375 162.246094 208.796875 162.339844 208.476562 162.402344 C 208.152344 162.46875 207.828125 162.5 207.5 162.5 C 207.171875 162.5 206.847656 162.46875 206.523438 162.402344 C 206.203125 162.339844 205.890625 162.246094 205.585938 162.121094 C 205.285156 161.992188 204.996094 161.839844 204.722656 161.65625 C 204.449219 161.476562 204.195312 161.269531 203.964844 161.035156 C 203.730469 160.804688 203.523438 160.550781 203.34375 160.277344 C 203.160156 160.003906 203.007812 159.714844 202.878906 159.414062 C 202.753906 159.109375 202.660156 158.796875 202.597656 158.476562 C 202.53125 158.152344 202.5 157.828125 202.5 157.5 C 202.5 157.167969 202.4375 156.847656 202.308594 156.542969 C 202.183594 156.238281 202.003906 155.964844 201.769531 155.730469 C 201.535156 155.496094 201.261719 155.316406 200.957031 155.191406 C 200.648438 155.0625 200.332031 155 200 155 C 199.667969 155 199.347656 155.0625 199.042969 155.191406 C 198.738281 155.316406 198.464844 155.496094 198.230469 155.730469 C 197.996094 155.964844 197.816406 156.238281 197.691406 156.542969 C 197.5625 156.847656 197.5 157.167969 197.5 157.5 C 197.5 157.828125 197.46875 158.152344 197.402344 158.476562 C 197.339844 158.796875 197.246094 159.109375 197.121094 159.414062 C 196.992188 159.714844 196.839844 160.003906 196.65625 160.277344 C 196.476562 160.550781 196.269531 160.804688 196.035156 161.035156 C 195.804688 161.269531 195.550781 161.476562 195.277344 161.65625 C 195.003906 161.839844 194.714844 161.992188 194.414062 162.121094 C 194.109375 162.246094 193.796875 162.339844 193.476562 162.402344 C 193.152344 162.46875 192.828125 162.5 192.5 162.5 C 192.171875 162.5 191.847656 162.46875 191.523438 162.402344 C 191.203125 162.339844 190.890625 162.246094 190.585938 162.121094 C 190.285156 161.992188 189.996094 161.839844 189.722656 161.65625 C 189.449219 161.476562 189.195312 161.269531 188.964844 161.035156 C 188.730469 160.804688 188.523438 160.550781 188.34375 160.277344 C 188.160156 160.003906 188.007812 159.714844 187.878906 159.414062 C 187.753906 159.109375 187.660156 158.796875 187.597656 158.476562 C 187.53125 158.152344 187.5 157.828125 187.5 157.5 C 187.5 157.167969 187.4375 156.847656 187.308594 156.542969 C 187.183594 156.238281 187.003906 155.964844 186.769531 155.730469 C 186.535156 155.496094 186.261719 155.316406 185.957031 155.191406 C 185.652344 155.0625 185.332031 155 185 155 C 184.667969 155 184.347656 155.0625 184.042969 155.191406 C 183.738281 155.316406 183.464844 155.496094 183.230469 155.730469 C 182.996094 155.964844 182.816406 156.238281 182.691406 156.542969 C 182.5625 156.847656 182.5 157.167969 182.5 157.5 C 182.5 157.828125 182.46875 158.152344 182.402344 158.476562 C 182.339844 158.796875 182.246094 159.109375 182.121094 159.414062 C 181.992188 159.714844 181.839844 160.003906 181.65625 160.277344 C 181.476562 160.550781 181.269531 160.804688 181.035156 161.035156 C 180.804688 161.269531 180.550781 161.476562 180.277344 161.65625 C 180.003906 161.839844 179.714844 161.992188 179.414062 162.121094 C 179.109375 162.246094 178.796875 162.339844 178.476562 162.402344 C 178.152344 162.46875 177.828125 162.5 177.5 162.5 C 177.171875 162.5 176.847656 162.46875 176.523438 162.402344 C 176.203125 162.339844 175.890625 162.246094 175.585938 162.121094 C 175.285156 161.992188 174.996094 161.839844 174.722656 161.65625 C 174.449219 161.476562 174.195312 161.269531 173.964844 161.035156 C 173.730469 160.804688 173.523438 160.550781 173.34375 160.277344 C 173.160156 160.003906 173.007812 159.714844 172.878906 159.414062 C 172.753906 159.109375 172.660156 158.796875 172.597656 158.476562 C 172.53125 158.152344 172.5 157.828125 172.5 157.5 C 172.5 147.960938 163.941406 140.4375 152.597656 140.003906 L 152.5 140 C 139.988281 140 130.957031 146.851562 124.675781 155.613281 C 134.390625 133.921875 153.867188 117.5 182.5 117.5 Z M 152.449219 145 C 162.226562 145.398438 167.5 151.730469 167.5 157.5 C 167.5 158.515625 167.652344 159.507812 167.953125 160.476562 C 168.253906 161.449219 168.695312 162.351562 169.273438 163.1875 C 169.851562 164.023438 170.539062 164.753906 171.339844 165.378906 C 172.140625 166.003906 173.015625 166.496094 173.964844 166.855469 C 174.914062 167.214844 175.898438 167.421875 176.910156 167.484375 C 177.925781 167.542969 178.925781 167.449219 179.910156 167.203125 C 180.898438 166.957031 181.824219 166.570312 182.691406 166.042969 C 183.558594 165.515625 184.328125 164.871094 185 164.109375 C 185.46875 164.640625 185.988281 165.117188 186.558594 165.539062 C 187.128906 165.960938 187.738281 166.320312 188.382812 166.613281 C 189.03125 166.90625 189.699219 167.125 190.394531 167.277344 C 191.089844 167.425781 191.789062 167.5 192.5 167.5 C 193.210938 167.5 193.910156 167.425781 194.605469 167.277344 C 195.300781 167.125 195.96875 166.90625 196.617188 166.613281 C 197.261719 166.320312 197.871094 165.960938 198.441406 165.539062 C 199.011719 165.117188 199.53125 164.640625 200 164.109375 C 200.84375 165.046875 201.828125 165.800781 202.957031 166.367188 C 201.863281 168.464844 201.066406 170.671875 200.5625 172.984375 C 200.0625 175.296875 199.875 177.636719 200 180 C 200 188.128906 205.71875 196.125 213.128906 200.027344 C 212.964844 200.105469 212.789062 200.1875 212.632812 200.265625 C 211.492188 200.996094 210.273438 201.550781 208.976562 201.933594 C 207.679688 202.3125 206.351562 202.503906 205 202.503906 C 203.648438 202.503906 202.324219 202.3125 201.023438 201.933594 C 199.726562 201.550781 198.507812 200.996094 197.371094 200.265625 C 194.316406 198.496094 191.027344 197.574219 187.5 197.5 L 187.496094 197.5 C 183.96875 197.570312 180.679688 198.492188 177.628906 200.261719 C 175.28125 201.675781 172.738281 202.421875 170 202.5 C 167.261719 202.421875 164.714844 201.675781 162.367188 200.261719 C 159.316406 198.492188 156.027344 197.570312 152.5 197.5 C 148.972656 197.570312 145.683594 198.496094 142.628906 200.265625 C 140.28125 201.675781 137.738281 202.421875 135 202.503906 C 132.261719 202.421875 129.71875 201.679688 127.371094 200.265625 C 124.316406 198.496094 121.027344 197.570312 117.5 197.5 L 117.5 190 C 117.5 180.847656 126.625 145.042969 152.449219 145 Z M 257.5 255 C 257.5 255.332031 257.4375 255.648438 257.308594 255.957031 C 257.183594 256.261719 257 256.53125 256.765625 256.765625 C 256.53125 257 256.261719 257.183594 255.957031 257.308594 C 255.648438 257.4375 255.332031 257.5 255 257.5 L 120 257.5 C 119.667969 257.5 119.351562 257.4375 119.042969 257.308594 C 118.738281 257.183594 118.46875 257 118.234375 256.765625 C 118 256.53125 117.816406 256.261719 117.691406 255.957031 C 117.5625 255.648438 117.5 255.332031 117.5 255 L 117.5 242.5 C 120.238281 242.578125 122.785156 243.324219 125.132812 244.734375 C 128.183594 246.507812 131.472656 247.429688 135 247.503906 C 138.527344 247.429688 141.816406 246.507812 144.867188 244.738281 C 147.214844 243.324219 149.761719 242.578125 152.5 242.5 C 155.238281 242.578125 157.785156 243.324219 160.132812 244.734375 C 163.183594 246.507812 166.472656 247.429688 170 247.5 C 173.527344 247.425781 176.816406 246.503906 179.867188 244.734375 C 182.214844 243.324219 184.757812 242.578125 187.496094 242.5 L 187.5 242.5 C 190.238281 242.578125 192.785156 243.324219 195.132812 244.734375 C 196.621094 245.640625 198.199219 246.328125 199.875 246.796875 C 201.550781 247.265625 203.261719 247.503906 205 247.503906 C 206.742188 247.503906 208.449219 247.269531 210.125 246.796875 C 211.800781 246.328125 213.382812 245.644531 214.867188 244.738281 C 216.007812 244.007812 217.226562 243.453125 218.523438 243.074219 C 219.820312 242.691406 221.148438 242.503906 222.5 242.503906 C 223.851562 242.503906 225.179688 242.691406 226.476562 243.074219 C 227.777344 243.453125 228.996094 244.007812 230.132812 244.738281 C 231.621094 245.644531 233.199219 246.332031 234.875 246.800781 C 236.550781 247.269531 238.261719 247.503906 240 247.503906 C 241.742188 247.503906 243.449219 247.269531 245.125 246.800781 C 246.800781 246.332031 248.378906 245.644531 249.867188 244.738281 C 252.214844 243.328125 254.761719 242.582031 257.5 242.503906 Z M 237.695312 169.039062 C 237.5 169.507812 237.453125 169.988281 237.550781 170.484375 C 237.648438 170.980469 237.875 171.40625 238.230469 171.765625 C 239.367188 172.871094 240.300781 174.125 241.03125 175.535156 C 241.761719 176.945312 242.253906 178.433594 242.5 180 C 242.5 180.492188 242.546875 180.980469 242.644531 181.464844 C 242.738281 181.945312 242.882812 182.414062 243.070312 182.871094 C 243.257812 183.324219 243.492188 183.757812 243.765625 184.167969 C 244.039062 184.578125 244.347656 184.953125 244.695312 185.304688 C 245.042969 185.652344 245.421875 185.960938 245.832031 186.234375 C 246.242188 186.507812 246.675781 186.742188 247.128906 186.929688 C 247.585938 187.117188 248.054688 187.261719 248.535156 187.355469 C 249.019531 187.453125 249.507812 187.5 250 187.5 C 250.492188 187.5 250.980469 187.453125 251.464844 187.355469 C 251.945312 187.261719 252.414062 187.117188 252.871094 186.929688 C 253.324219 186.742188 253.757812 186.507812 254.167969 186.234375 C 254.578125 185.960938 254.953125 185.652344 255.304688 185.304688 C 255.652344 184.953125 255.960938 184.578125 256.234375 184.167969 C 256.507812 183.757812 256.742188 183.324219 256.929688 182.871094 C 257.117188 182.414062 257.261719 181.945312 257.355469 181.464844 C 257.453125 180.980469 257.5 180.492188 257.5 180 C 257.5 170.894531 246.765625 167.5 240 167.5 C 239.496094 167.5 239.035156 167.640625 238.613281 167.921875 C 238.195312 168.203125 237.886719 168.574219 237.695312 169.039062 Z M 252.5 180 C 252.5 180.332031 252.4375 180.652344 252.308594 180.957031 C 252.183594 181.261719 252.003906 181.535156 251.769531 181.769531 C 251.535156 182.003906 251.261719 182.183594 250.957031 182.308594 C 250.648438 182.4375 250.332031 182.5 250 182.5 C 249.667969 182.5 249.347656 182.4375 249.042969 182.308594 C 248.738281 182.183594 248.464844 182.003906 248.230469 181.769531 C 247.996094 181.535156 247.816406 181.261719 247.691406 180.957031 C 247.5625 180.652344 247.5 180.332031 247.5 180 C 247.421875 177.625 246.78125 175.414062 245.582031 173.367188 C 249.085938 174.402344 252.5 176.460938 252.5 180 Z M 237.5 135 C 237.5 135.492188 237.546875 135.980469 237.644531 136.464844 C 237.738281 136.945312 237.882812 137.414062 238.070312 137.871094 C 238.257812 138.324219 238.492188 138.757812 238.765625 139.167969 C 239.039062 139.578125 239.347656 139.953125 239.695312 140.304688 C 240.042969 140.652344 240.421875 140.960938 240.832031 141.234375 C 241.242188 141.507812 241.675781 141.742188 242.128906 141.929688 C 242.585938 142.117188 243.054688 142.261719 243.535156 142.355469 C 244.019531 142.453125 244.507812 142.5 245 142.5 C 245.492188 142.5 245.980469 142.453125 246.464844 142.355469 C 246.945312 142.261719 247.414062 142.117188 247.871094 141.929688 C 248.324219 141.742188 248.757812 141.507812 249.167969 141.234375 C 249.578125 140.960938 249.953125 140.652344 250.304688 140.304688 C 250.652344 139.953125 250.960938 139.578125 251.234375 139.167969 C 251.507812 138.757812 251.742188 138.324219 251.929688 137.871094 C 252.117188 137.414062 252.257812 136.945312 252.355469 136.464844 C 252.453125 135.980469 252.5 135.492188 252.5 135 C 252.5 125.894531 241.765625 122.5 235 122.5 C 234.496094 122.5 234.03125 122.640625 233.613281 122.921875 C 233.195312 123.203125 232.886719 123.574219 232.695312 124.042969 C 232.5 124.507812 232.453125 124.988281 232.550781 125.484375 C 232.648438 125.980469 232.875 126.40625 233.230469 126.765625 C 234.367188 127.871094 235.300781 129.125 236.03125 130.535156 C 236.761719 131.945312 237.253906 133.433594 237.5 135 Z M 247.5 135 C 247.5 135.332031 247.4375 135.652344 247.308594 135.957031 C 247.183594 136.261719 247.003906 136.535156 246.769531 136.769531 C 246.535156 137.003906 246.261719 137.183594 245.957031 137.308594 C 245.648438 137.4375 245.332031 137.5 245 137.5 C 244.667969 137.5 244.347656 137.4375 244.042969 137.308594 C 243.738281 137.183594 243.464844 137.003906 243.230469 136.769531 C 242.996094 136.535156 242.816406 136.261719 242.691406 135.957031 C 242.5625 135.652344 242.5 135.332031 242.5 135 C 242.421875 132.625 241.78125 130.414062 240.582031 128.367188 C 244.085938 129.402344 247.5 131.460938 247.5 135 Z M 247.5 135" fill="#ffffff"/></g></svg>