<svg version="1.0" preserveAspectRatio="xMidYMid meet" viewBox="135.45 108.14099740461599 104.25000000000001 155.999996256" zoomAndPan="magnify" xmlns:xlink="http://www.w3.org/1999/xlink" xmlns="http://www.w3.org/2000/svg" style="max-height: 500px" width="104.25000000000001" height="155.999996256"><defs><clipPath id="7310989c00"><path clip-rule="nonzero" d="M 148 226 L 227 226 L 227 262.5 L 148 262.5 Z M 148 226"/></clipPath><clipPath id="6267cd41e0"><path clip-rule="nonzero" d="M 139.125 112.5 L 235.875 112.5 L 235.875 242 L 139.125 242 Z M 139.125 112.5"/></clipPath></defs><g clip-path="url(#7310989c00)"><path fill-rule="nonzero" fill-opacity="1" d="M 163.734375 235.230469 C 164.257812 234.964844 164.796875 234.710938 165.351562 234.46875 C 167.347656 233.59375 168.257812 231.265625 167.382812 229.269531 C 166.507812 227.273438 164.175781 226.367188 162.183594 227.238281 C 161.488281 227.539062 160.816406 227.859375 160.148438 228.199219 C 152.738281 231.996094 148.65625 237.0625 148.65625 242.464844 C 148.65625 247.898438 152.738281 252.972656 160.15625 256.753906 C 167.433594 260.457031 177.113281 262.5 187.417969 262.5 C 197.722656 262.5 207.402344 260.457031 214.675781 256.753906 C 222.089844 252.972656 226.171875 247.898438 226.171875 242.464844 C 226.171875 237.0625 222.089844 231.996094 214.675781 228.195312 C 213.914062 227.808594 213.125 227.4375 212.3125 227.085938 C 210.308594 226.226562 207.988281 227.148438 207.125 229.148438 C 206.261719 231.152344 207.1875 233.476562 209.1875 234.335938 C 209.84375 234.617188 210.476562 234.914062 211.082031 235.222656 C 216.394531 237.945312 218.28125 240.824219 218.28125 242.464844 C 218.28125 244.121094 216.398438 247.011719 211.089844 249.71875 C 204.910156 252.871094 196.5 254.605469 187.417969 254.605469 C 178.335938 254.605469 169.925781 252.871094 163.742188 249.71875 C 158.433594 247.015625 156.554688 244.121094 156.554688 242.464844 C 156.550781 240.828125 158.433594 237.945312 163.734375 235.230469 Z M 163.734375 235.230469" fill="#ffffff"/></g><g clip-path="url(#6267cd41e0)"><path fill-rule="nonzero" fill-opacity="1" d="M 187.9375 112.511719 C 187.832031 112.503906 187.726562 112.5 187.617188 112.5 L 187.21875 112.5 C 187.109375 112.5 187.003906 112.503906 186.898438 112.511719 C 160.890625 112.898438 139.78125 134.292969 139.78125 160.273438 C 139.371094 186.121094 159.148438 209.777344 173.589844 227.046875 C 177.828125 232.113281 181.484375 236.488281 183.960938 240.113281 C 184.691406 241.1875 185.914062 241.832031 187.21875 241.832031 L 187.617188 241.832031 C 188.921875 241.832031 190.144531 241.1875 190.878906 240.113281 C 193.351562 236.488281 197.011719 232.113281 201.246094 227.046875 C 215.6875 209.773438 235.464844 186.117188 235.054688 160.335938 C 235.054688 134.296875 213.941406 112.898438 187.9375 112.511719 Z M 195.1875 221.980469 C 192.289062 225.453125 189.648438 228.605469 187.417969 231.488281 C 185.183594 228.605469 182.546875 225.453125 179.648438 221.984375 C 166 205.660156 147.3125 183.308594 147.675781 160.335938 C 147.675781 138.511719 165.429688 120.601562 187.253906 120.402344 C 187.308594 120.402344 187.363281 120.402344 187.417969 120.398438 C 187.472656 120.402344 187.523438 120.402344 187.582031 120.402344 C 209.402344 120.601562 227.160156 138.511719 227.160156 160.398438 C 227.523438 183.308594 208.835938 205.660156 195.1875 221.980469 Z M 195.1875 221.980469" fill="#ffffff"/></g><path fill-rule="nonzero" fill-opacity="1" d="M 187.417969 142.898438 C 177.769531 143 169.972656 150.769531 169.972656 160.34375 C 169.972656 169.917969 177.761719 177.683594 187.417969 177.789062 C 197.074219 177.683594 204.863281 169.917969 204.863281 160.34375 C 204.863281 150.769531 197.0625 143 187.417969 142.898438 Z M 187.417969 142.898438" fill="#ffffff"/></svg>