<svg version="1.0" preserveAspectRatio="xMidYMid meet" viewBox="104.7 106.1999974512 67.5 138.74999667" zoomAndPan="magnify" xmlns:xlink="http://www.w3.org/1999/xlink" xmlns="http://www.w3.org/2000/svg" style="max-height: 500px" width="67.5" height="138.74999667"><defs><clipPath id="326ac161a1"><path clip-rule="nonzero" d="M 106.273438 122.296875 L 137 122.296875 L 137 181 L 106.273438 181 Z M 106.273438 122.296875"/></clipPath><clipPath id="223e5dff60"><path clip-rule="nonzero" d="M 223.472656 124.644531 L 256.226562 124.644531 L 256.226562 239.203125 L 223.472656 239.203125 Z M 223.472656 124.644531"/></clipPath><clipPath id="f17d8d87d1"><path clip-rule="nonzero" d="M 198 122.296875 L 224 122.296875 L 224 179 L 198 179 Z M 198 122.296875"/></clipPath></defs><path fill-rule="nonzero" fill-opacity="1" d="M 153.265625 236.1875 C 146.183594 236.1875 140.421875 230.425781 140.421875 223.34375 C 140.421875 219.390625 142.207031 215.714844 145.316406 213.257812 L 145.976562 212.734375 L 145.976562 136.171875 C 145.976562 132.152344 149.25 128.882812 153.265625 128.882812 C 157.285156 128.882812 160.554688 132.152344 160.554688 136.171875 L 160.554688 212.734375 L 161.21875 213.257812 C 164.328125 215.714844 166.113281 219.390625 166.113281 223.34375 C 166.113281 230.425781 160.347656 236.1875 153.265625 236.1875 Z M 164.039062 211.078125 L 164.039062 136.171875 C 164.039062 130.230469 159.203125 125.398438 153.265625 125.398438 C 147.328125 125.398438 142.496094 130.230469 142.496094 136.171875 L 142.496094 211.078125 C 138.953125 214.183594 136.9375 218.605469 136.9375 223.34375 C 136.9375 232.347656 144.261719 239.671875 153.265625 239.671875 C 162.269531 239.671875 169.597656 232.347656 169.597656 223.34375 C 169.597656 218.605469 167.578125 214.183594 164.039062 211.078125" fill="#ffffff"/><path fill-rule="nonzero" fill-opacity="1" d="M 159.4375 215.511719 L 157.6875 214.125 L 157.6875 151.460938 C 157.6875 149.019531 155.707031 147.039062 153.265625 147.039062 C 150.824219 147.039062 148.847656 149.019531 148.847656 151.460938 L 148.847656 214.125 L 147.09375 215.511719 C 144.546875 217.523438 143.144531 220.585938 143.300781 223.84375 C 143.5625 229.15625 148.042969 233.371094 153.363281 233.320312 C 158.820312 233.265625 163.246094 228.8125 163.246094 223.34375 C 163.246094 220.273438 161.855469 217.421875 159.4375 215.511719" fill="#e83131"/><g clip-path="url(#326ac161a1)"><path fill-rule="nonzero" fill-opacity="1" d="M 136.714844 123.515625 C 136.714844 122.84375 136.167969 122.296875 135.492188 122.296875 C 134.820312 122.296875 134.273438 122.84375 134.273438 123.515625 L 134.273438 134.652344 L 134.289062 135.828125 L 133.167969 135.992188 C 132.003906 136.167969 130.863281 136.476562 129.773438 136.90625 L 128.738281 137.316406 L 128.175781 136.351562 C 128.164062 136.335938 128.15625 136.324219 128.148438 136.308594 L 122.570312 126.65625 C 122.355469 126.277344 121.949219 126.042969 121.515625 126.042969 C 121.300781 126.042969 121.089844 126.101562 120.90625 126.207031 C 120.320312 126.546875 120.121094 127.292969 120.457031 127.875 L 126.035156 137.53125 L 126.046875 137.542969 L 126.628906 138.535156 L 125.75 139.238281 C 124.835938 139.972656 124 140.808594 123.269531 141.722656 L 122.566406 142.605469 L 121.59375 142.03125 C 121.582031 142.023438 121.566406 142.015625 121.554688 142.007812 L 111.902344 136.4375 C 111.714844 136.332031 111.503906 136.273438 111.292969 136.273438 C 110.855469 136.273438 110.453125 136.507812 110.234375 136.886719 C 110.066406 137.171875 110.027344 137.492188 110.113281 137.8125 C 110.195312 138.132812 110.394531 138.386719 110.679688 138.550781 L 120.339844 144.125 L 120.351562 144.132812 L 121.351562 144.699219 L 120.9375 145.75 C 120.511719 146.835938 120.207031 147.976562 120.03125 149.136719 L 119.863281 150.257812 L 118.734375 150.242188 C 118.722656 150.242188 118.707031 150.242188 118.699219 150.242188 L 107.550781 150.246094 C 106.878906 150.246094 106.332031 150.792969 106.332031 151.464844 C 106.332031 152.140625 106.878906 152.6875 107.550781 152.6875 L 118.6875 152.683594 L 119.863281 152.671875 L 120.03125 153.789062 C 120.207031 154.949219 120.511719 156.089844 120.941406 157.179688 L 121.351562 158.21875 L 120.386719 158.777344 C 120.375 158.785156 120.359375 158.792969 120.347656 158.796875 L 110.6875 164.378906 C 110.105469 164.714844 109.90625 165.464844 110.242188 166.046875 C 110.457031 166.421875 110.863281 166.65625 111.300781 166.65625 C 111.515625 166.65625 111.722656 166.601562 111.910156 166.492188 L 121.554688 160.921875 L 121.566406 160.914062 L 122.570312 160.324219 L 123.273438 161.203125 C 124.003906 162.117188 124.839844 162.953125 125.757812 163.683594 L 126.640625 164.386719 L 126.046875 165.390625 L 120.46875 175.050781 C 120.304688 175.335938 120.265625 175.65625 120.347656 175.976562 C 120.4375 176.296875 120.632812 176.554688 120.917969 176.71875 C 121.101562 176.824219 121.3125 176.882812 121.527344 176.882812 C 121.960938 176.882812 122.367188 176.648438 122.585938 176.269531 L 128.152344 166.628906 L 128.726562 165.597656 L 129.78125 166.011719 C 130.867188 166.445312 132.011719 166.75 133.171875 166.921875 L 134.289062 167.089844 L 134.277344 168.21875 C 134.277344 168.234375 134.277344 168.242188 134.277344 168.253906 L 134.277344 179.402344 C 134.277344 180.074219 134.824219 180.621094 135.496094 180.621094 L 135.5 180.621094 C 135.832031 180.621094 136.128906 180.5 136.363281 180.265625 C 136.566406 180.058594 136.6875 179.804688 136.714844 179.523438 L 136.714844 166.199219 C 136.714844 165.53125 136.171875 165 135.503906 165.003906 C 135.5 165.003906 135.496094 165.003906 135.492188 165.003906 C 128.027344 165.003906 121.957031 158.929688 121.957031 151.460938 C 121.957031 143.996094 128.027344 137.921875 135.492188 137.921875 C 135.496094 137.921875 135.5 137.921875 135.503906 137.921875 C 136.171875 137.921875 136.714844 137.390625 136.714844 136.726562 L 136.714844 135.828125 L 136.699219 135.828125 C 136.699219 135.828125 136.714844 134.671875 136.714844 134.660156 L 136.714844 123.515625" fill="#ffce00"/></g><g clip-path="url(#223e5dff60)"><path fill-rule="nonzero" fill-opacity="1" d="M 239.898438 235.558594 C 232.8125 235.558594 227.050781 229.796875 227.050781 222.710938 C 227.050781 218.761719 228.835938 215.085938 231.945312 212.628906 L 232.609375 212.105469 L 232.609375 135.539062 C 232.609375 131.523438 235.878906 128.25 239.898438 128.25 C 243.914062 128.25 247.1875 131.523438 247.1875 135.539062 L 247.1875 212.105469 L 247.847656 212.628906 C 250.957031 215.085938 252.742188 218.761719 252.742188 222.710938 C 252.742188 229.796875 246.980469 235.558594 239.898438 235.558594 Z M 250.667969 210.445312 L 250.667969 135.539062 C 250.667969 129.597656 245.835938 124.765625 239.898438 124.765625 C 233.957031 124.765625 229.125 129.597656 229.125 135.539062 L 229.125 210.445312 C 225.582031 213.550781 223.566406 217.976562 223.566406 222.710938 C 223.566406 231.714844 230.894531 239.042969 239.898438 239.042969 C 248.902344 239.042969 256.226562 231.714844 256.226562 222.710938 C 256.226562 217.976562 254.210938 213.550781 250.667969 210.445312" fill="#ffffff"/></g><path fill-rule="nonzero" fill-opacity="1" d="M 246.070312 214.878906 L 244.316406 213.496094 L 244.316406 197.867188 C 244.316406 195.425781 242.335938 193.445312 239.898438 193.445312 C 237.457031 193.445312 235.476562 195.425781 235.476562 197.867188 L 235.476562 213.496094 L 233.726562 214.878906 C 231.175781 216.894531 229.773438 219.957031 229.929688 223.210938 C 230.191406 228.527344 234.675781 232.738281 239.992188 232.6875 C 245.449219 232.636719 249.875 228.183594 249.875 222.710938 C 249.875 219.644531 248.488281 216.789062 246.070312 214.878906" fill="#2c7dff"/><g clip-path="url(#f17d8d87d1)"><path fill-rule="nonzero" fill-opacity="1" d="M 198.546875 165.8125 C 198.78125 166.179688 199.167969 166.394531 199.609375 166.394531 C 199.851562 166.394531 200.074219 166.328125 200.277344 166.195312 L 208.152344 161.191406 L 206.015625 167.765625 C 205.800781 168.425781 206.164062 169.136719 206.820312 169.351562 C 206.945312 169.394531 207.074219 169.414062 207.210938 169.414062 C 207.765625 169.414062 208.234375 169.074219 208.40625 168.546875 L 211.488281 159.0625 L 220.828125 153.121094 L 220.828125 164.1875 L 214.480469 171.875 C 214.195312 172.226562 214.183594 172.605469 214.199219 172.800781 C 214.21875 172.992188 214.304688 173.363281 214.652344 173.648438 C 214.875 173.835938 215.160156 173.9375 215.453125 173.9375 C 215.832031 173.9375 216.183594 173.769531 216.421875 173.480469 L 220.828125 168.140625 L 220.828125 177.46875 C 220.828125 178.164062 221.390625 178.730469 222.085938 178.730469 C 222.777344 178.730469 223.34375 178.164062 223.34375 177.46875 L 223.34375 124.183594 C 223.34375 123.488281 222.777344 122.929688 222.085938 122.929688 C 221.390625 122.929688 220.828125 123.488281 220.828125 124.183594 L 220.828125 133.511719 L 216.421875 128.171875 C 216.183594 127.882812 215.828125 127.714844 215.453125 127.714844 C 215.160156 127.714844 214.875 127.816406 214.652344 128.003906 C 214.390625 128.222656 214.234375 128.515625 214.203125 128.855469 C 214.167969 129.1875 214.269531 129.515625 214.480469 129.777344 L 220.828125 137.464844 L 220.828125 148.535156 L 211.488281 142.589844 L 208.40625 133.109375 C 208.234375 132.582031 207.765625 132.238281 207.210938 132.238281 C 207.09375 132.238281 206.964844 132.257812 206.828125 132.296875 C 206.496094 132.410156 206.242188 132.628906 206.089844 132.929688 C 205.9375 133.230469 205.910156 133.5625 206.015625 133.886719 L 208.152344 140.46875 L 200.28125 135.460938 C 200.078125 135.328125 199.851562 135.257812 199.609375 135.257812 C 199.167969 135.257812 198.78125 135.472656 198.546875 135.84375 C 198.367188 136.128906 198.308594 136.464844 198.378906 136.796875 C 198.453125 137.121094 198.648438 137.398438 198.933594 137.578125 L 206.804688 142.589844 L 199.933594 143.433594 C 199.601562 143.476562 199.300781 143.648438 199.097656 143.914062 C 198.886719 144.179688 198.796875 144.503906 198.839844 144.847656 C 198.914062 145.464844 199.464844 145.945312 200.085938 145.945312 C 200.121094 145.945312 200.171875 145.945312 200.25 145.9375 L 210.136719 144.714844 L 219.742188 150.824219 L 210.136719 156.9375 L 200.261719 155.71875 C 200.1875 155.714844 200.136719 155.710938 200.089844 155.710938 C 199.453125 155.710938 198.914062 156.183594 198.835938 156.8125 C 198.796875 157.144531 198.890625 157.472656 199.097656 157.742188 C 199.300781 158.003906 199.601562 158.175781 199.9375 158.21875 L 206.804688 159.0625 L 198.929688 164.074219 C 198.644531 164.253906 198.453125 164.535156 198.378906 164.859375 C 198.304688 165.195312 198.363281 165.523438 198.546875 165.8125" fill="#2c7dff"/></g></svg>