<svg version="1.0" preserveAspectRatio="xMidYMid meet" viewBox="107.39999999999999 119.54024713103401 161.25 138.74999667" zoomAndPan="magnify" xmlns:xlink="http://www.w3.org/1999/xlink" xmlns="http://www.w3.org/2000/svg" style="max-height: 500px" width="161.25" height="138.74999667"><defs><clipPath id="2282038bb1"><path clip-rule="nonzero" d="M 238 240 L 250 240 L 250 251.316406 L 238 251.316406 Z M 238 240"/></clipPath><clipPath id="d2d37cde33"><path clip-rule="nonzero" d="M 112.5 123.816406 L 262.5 123.816406 L 262.5 220 L 112.5 220 Z M 112.5 123.816406"/></clipPath></defs><path fill-rule="nonzero" fill-opacity="1" d="M 232.421875 235.265625 C 232.492188 235.265625 232.566406 235.265625 232.636719 235.261719 C 232.710938 235.253906 232.808594 235.253906 232.910156 235.253906 L 233.066406 235.253906 C 233.152344 235.253906 233.25 235.25 233.351562 235.242188 C 233.59375 235.21875 233.890625 235.191406 234.210938 235.148438 C 234.539062 235.070312 234.832031 234.988281 235.097656 234.902344 C 235.242188 234.839844 235.402344 234.761719 235.589844 234.65625 L 235.636719 234.632812 L 235.6875 234.609375 C 236.6875 234.210938 237.574219 233.496094 238.183594 232.605469 C 238.824219 231.691406 239.183594 230.8125 239.257812 229.984375 C 239.285156 229.71875 239.300781 229.449219 239.3125 229.199219 C 239.308594 229.101562 239.304688 229 239.304688 228.902344 C 239.300781 228.734375 239.300781 228.574219 239.28125 228.445312 C 239.269531 228.359375 239.261719 228.273438 239.25 228.1875 C 239.226562 228.003906 239.207031 227.832031 239.167969 227.691406 L 239.15625 227.648438 C 239.097656 227.371094 239.042969 227.140625 238.964844 226.9375 L 238.953125 226.902344 C 238.605469 225.890625 238.03125 225.050781 237.292969 224.472656 L 237.109375 224.324219 L 236.929688 224.203125 L 236.507812 223.902344 C 236.445312 223.859375 236.375 223.824219 236.304688 223.785156 C 236.25 223.753906 236.195312 223.722656 236.140625 223.691406 C 236.085938 223.664062 236.03125 223.632812 235.980469 223.601562 C 235.90625 223.558594 235.839844 223.519531 235.789062 223.5 C 235.125 223.203125 234.613281 223.070312 234.152344 223.0625 C 234.070312 223.0625 233.96875 223.054688 233.855469 223.042969 C 233.773438 223.039062 233.683594 223.027344 233.585938 223.027344 C 233.347656 223.035156 233.082031 223.046875 232.796875 223.066406 L 232.734375 223.070312 L 232.671875 223.066406 C 232.527344 223.054688 232.378906 223.050781 232.230469 223.050781 C 232.066406 223.050781 231.910156 223.058594 231.753906 223.070312 C 230.773438 223.15625 229.769531 223.566406 228.992188 224.203125 C 227.992188 225.011719 227.300781 225.980469 226.984375 227.015625 C 226.765625 227.660156 226.628906 228.269531 226.558594 228.890625 C 226.546875 229.023438 226.53125 229.179688 226.527344 229.328125 L 226.535156 229.902344 C 226.535156 229.972656 226.546875 230.066406 226.566406 230.175781 L 226.582031 230.300781 C 226.59375 230.367188 226.601562 230.429688 226.613281 230.496094 C 226.625 230.589844 226.636719 230.679688 226.652344 230.738281 L 226.664062 230.777344 C 226.980469 232.070312 227.707031 233.1875 228.65625 233.839844 L 229.15625 234.179688 C 229.246094 234.234375 229.339844 234.289062 229.433594 234.339844 C 229.507812 234.378906 229.582031 234.421875 229.652344 234.464844 L 229.914062 234.609375 C 229.933594 234.621094 229.96875 234.636719 230.007812 234.652344 C 230.046875 234.667969 230.636719 234.925781 230.636719 234.925781 C 231.328125 235.15625 231.910156 235.265625 232.421875 235.265625 Z M 232.421875 235.265625" fill="#ffffff"/><path fill-rule="nonzero" fill-opacity="1" d="M 243.433594 250.253906 C 243.484375 250.253906 243.53125 250.253906 243.578125 250.25 C 243.636719 250.246094 243.710938 250.242188 243.796875 250.242188 L 243.90625 250.242188 C 243.96875 250.242188 244.03125 250.242188 244.101562 250.238281 C 244.273438 250.222656 244.484375 250.199219 244.707031 250.171875 C 244.9375 250.117188 245.136719 250.058594 245.324219 250 C 245.417969 249.960938 245.523438 249.90625 245.652344 249.835938 L 245.699219 249.808594 L 245.75 249.789062 C 246.441406 249.511719 247.058594 249.019531 247.480469 248.398438 C 247.929688 247.757812 248.179688 247.152344 248.230469 246.582031 C 248.25 246.394531 248.261719 246.210938 248.269531 246.023438 C 248.265625 245.953125 248.265625 245.882812 248.265625 245.808594 C 248.261719 245.695312 248.261719 245.582031 248.25 245.503906 C 248.242188 245.4375 248.234375 245.375 248.226562 245.308594 C 248.210938 245.183594 248.195312 245.0625 248.171875 244.976562 L 248.164062 244.9375 C 248.117188 244.738281 248.082031 244.578125 248.03125 244.445312 L 248.015625 244.414062 C 247.777344 243.710938 247.382812 243.128906 246.875 242.734375 L 246.742188 242.625 L 246.578125 242.515625 L 246.328125 242.339844 C 246.175781 242.246094 245.980469 242.128906 245.785156 242.03125 C 245.351562 241.839844 245.007812 241.75 244.707031 241.746094 C 244.707031 241.746094 244.703125 241.746094 244.703125 241.746094 C 244.640625 241.746094 244.558594 241.738281 244.46875 241.730469 C 244.414062 241.726562 244.355469 241.71875 244.289062 241.71875 C 244.140625 241.726562 243.96875 241.730469 243.785156 241.742188 L 243.6875 241.761719 L 243.570312 241.753906 C 243.46875 241.746094 243.367188 241.742188 243.265625 241.742188 C 243.164062 241.742188 243.0625 241.746094 242.957031 241.753906 C 242.289062 241.808594 241.597656 242.09375 241.0625 242.53125 C 240.367188 243.097656 239.882812 243.773438 239.660156 244.496094 L 239.648438 244.523438 C 239.597656 244.675781 239.550781 244.847656 239.503906 245.027344 L 239.472656 245.15625 C 239.457031 245.226562 239.445312 245.296875 239.429688 245.367188 C 239.398438 245.523438 239.371094 245.660156 239.363281 245.78125 C 239.359375 245.851562 239.351562 245.902344 239.347656 245.953125 C 239.339844 246.011719 239.335938 246.070312 239.332031 246.132812 L 239.339844 246.550781 C 239.339844 246.582031 239.347656 246.648438 239.359375 246.707031 L 239.371094 246.800781 C 239.378906 246.851562 239.386719 246.898438 239.394531 246.949219 C 239.402344 247 239.410156 247.066406 239.417969 247.089844 L 239.429688 247.132812 C 239.648438 248.027344 240.144531 248.800781 240.796875 249.246094 L 241.160156 249.492188 C 241.226562 249.53125 241.289062 249.570312 241.355469 249.605469 C 241.410156 249.636719 241.53125 249.703125 241.53125 249.703125 L 241.546875 249.714844 C 241.664062 249.789062 241.820312 249.851562 241.988281 249.921875 C 242.0625 249.953125 242.140625 249.984375 242.214844 250.019531 C 242.6875 250.175781 243.089844 250.253906 243.433594 250.253906 Z M 243.433594 250.253906" fill="#ffffff"/><path fill-rule="nonzero" fill-opacity="1" d="M 207.527344 218.828125 C 207.976562 218.820312 208.441406 218.789062 208.933594 218.757812 L 209.238281 218.738281 L 210.113281 218.640625 L 210.535156 218.59375 L 211.257812 218.46875 C 211.445312 218.4375 211.632812 218.40625 211.816406 218.371094 L 212.691406 218.164062 C 213.917969 217.84375 214.996094 217.453125 215.964844 216.96875 C 217.023438 216.433594 217.980469 215.792969 218.8125 215.066406 C 219.679688 214.308594 220.4375 213.4375 221.070312 212.46875 C 221.679688 211.523438 222.175781 210.476562 222.542969 209.359375 C 222.621094 209.113281 222.710938 208.8125 222.777344 208.546875 L 222.78125 208.519531 C 222.78125 208.519531 222.800781 208.453125 222.804688 208.4375 C 222.816406 208.398438 222.820312 208.367188 222.820312 208.339844 L 222.847656 206.417969 L 224.332031 207.726562 L 224.433594 207.8125 L 224.53125 207.886719 L 224.6875 208.011719 L 225.667969 208.734375 C 225.851562 208.875 226.035156 209 226.226562 209.128906 C 226.324219 209.195312 226.417969 209.261719 226.515625 209.328125 C 226.601562 209.386719 226.703125 209.453125 226.804688 209.523438 C 226.992188 209.652344 227.167969 209.777344 227.347656 209.882812 L 227.375 209.898438 C 228.414062 210.574219 229.558594 211.230469 230.972656 211.960938 C 232.179688 212.5625 233.460938 213.121094 234.773438 213.617188 C 236.082031 214.097656 237.421875 214.507812 238.742188 214.832031 C 241.171875 215.40625 243.417969 215.6875 245.597656 215.6875 C 246.078125 215.6875 246.558594 215.671875 247.027344 215.644531 C 248.53125 215.550781 249.890625 215.328125 251.1875 214.960938 C 252.71875 214.515625 253.988281 213.9375 255.0625 213.183594 C 255.761719 212.699219 256.398438 212.128906 256.957031 211.5 C 257.039062 211.398438 257.128906 211.285156 257.214844 211.167969 L 257.351562 210.988281 L 257.53125 210.75 L 258.351562 209.472656 C 258.546875 209.1875 258.707031 208.894531 258.878906 208.582031 L 258.953125 208.449219 C 259.019531 208.324219 259.09375 208.195312 259.167969 208.0625 C 259.289062 207.84375 259.410156 207.625 259.527344 207.398438 C 259.601562 207.230469 259.679688 207.0625 259.757812 206.894531 C 260.03125 206.3125 260.289062 205.761719 260.476562 205.183594 C 261.113281 203.4375 261.429688 201.886719 261.460938 200.410156 C 261.507812 198.761719 261.226562 197.113281 260.648438 195.625 C 260.09375 194.109375 258.789062 191.828125 256.769531 189.929688 C 254.746094 187.996094 252.027344 186.3125 249.300781 185.308594 L 247.964844 184.816406 L 248.996094 183.839844 C 249.035156 183.804688 249.070312 183.769531 249.105469 183.734375 C 250.421875 182.363281 251.449219 181.03125 252.226562 179.667969 L 252.257812 179.621094 C 252.351562 179.476562 252.441406 179.308594 252.53125 179.128906 C 252.585938 179.027344 252.636719 178.921875 252.695312 178.820312 C 252.746094 178.71875 252.800781 178.617188 252.855469 178.511719 C 252.953125 178.328125 253.046875 178.15625 253.121094 177.988281 C 253.1875 177.835938 253.257812 177.679688 253.328125 177.523438 C 253.527344 177.074219 253.714844 176.652344 253.859375 176.21875 L 253.871094 176.179688 C 254.28125 175.097656 254.601562 173.878906 254.847656 172.453125 C 255.257812 169.949219 255.222656 167.351562 254.746094 164.738281 C 254.300781 162.246094 253.488281 159.765625 252.328125 157.359375 C 252.0625 156.804688 251.765625 156.242188 251.421875 155.632812 C 251.253906 155.335938 251.089844 155.0625 250.921875 154.792969 C 250.738281 154.5 250.542969 154.210938 250.382812 153.996094 L 249.511719 152.792969 L 248.554688 151.644531 C 248.433594 151.5 248.296875 151.355469 248.152344 151.207031 C 248.066406 151.117188 247.976562 151.027344 247.890625 150.933594 C 247.496094 150.496094 247.058594 150.101562 246.597656 149.679688 L 246.28125 149.394531 L 245.96875 149.140625 C 245.476562 148.746094 245.007812 148.367188 244.507812 148.046875 C 243.160156 147.136719 241.816406 146.441406 240.496094 145.964844 C 238.378906 145.179688 236.105469 144.785156 233.730469 144.785156 C 233.027344 144.785156 232.3125 144.820312 231.605469 144.890625 C 230.027344 145.035156 228.402344 145.335938 226.769531 145.785156 C 225.90625 146.023438 225.140625 146.265625 224.429688 146.53125 L 224.179688 146.617188 L 223.992188 146.679688 L 223.082031 146.980469 L 222.855469 146.050781 C 222.820312 145.902344 222.820312 145.769531 222.824219 145.691406 L 222.824219 145.652344 C 222.824219 145.652344 222.78125 145.402344 222.765625 145.320312 C 222.734375 145.117188 222.699219 144.925781 222.65625 144.75 C 222.613281 144.570312 222.574219 144.40625 222.535156 144.242188 C 222.441406 143.824219 222.351562 143.433594 222.226562 143.054688 L 221.964844 142.191406 L 221.65625 141.367188 C 220.878906 139.269531 219.703125 137.242188 218.164062 135.34375 C 217.429688 134.464844 216.613281 133.617188 215.746094 132.828125 C 214.886719 132.070312 213.960938 131.355469 212.996094 130.707031 C 211.109375 129.441406 209.027344 128.40625 206.816406 127.636719 C 206.347656 127.476562 205.929688 127.339844 205.542969 127.226562 C 205.324219 127.160156 205.109375 127.101562 204.890625 127.042969 L 204.570312 126.960938 L 204.527344 126.976562 L 202.09375 126.152344 C 201.816406 126.074219 201.539062 125.996094 201.265625 125.917969 C 200.785156 125.78125 200.289062 125.640625 199.804688 125.519531 C 198.347656 125.191406 196.757812 124.867188 195.144531 124.769531 L 194.246094 124.703125 L 192.652344 124.703125 C 192.5 124.703125 192.339844 124.714844 192.191406 124.726562 L 190.949219 124.828125 C 190.847656 124.832031 190.738281 124.851562 190.621094 124.871094 C 190.542969 124.886719 190.460938 124.898438 190.382812 124.910156 C 188.871094 125.109375 187.339844 125.542969 185.820312 126.203125 L 185.179688 126.480469 L 184.46875 126.847656 C 184.097656 127.023438 183.722656 127.25 183.324219 127.492188 C 183.175781 127.582031 183.023438 127.675781 182.867188 127.765625 C 181.613281 128.59375 180.46875 129.546875 179.460938 130.605469 C 177.4375 132.699219 175.71875 135.527344 174.738281 138.371094 L 173.996094 140.523438 L 173.09375 138.433594 C 172.695312 137.515625 172.210938 136.648438 171.65625 135.855469 C 170.5 134.257812 169.035156 132.878906 167.425781 131.875 L 167.398438 131.859375 C 167.113281 131.664062 166.800781 131.492188 166.46875 131.308594 C 166.359375 131.25 166.253906 131.1875 166.144531 131.128906 L 165.871094 130.996094 C 165.511719 130.816406 165.171875 130.648438 164.828125 130.511719 C 163.90625 130.121094 162.96875 129.800781 162.015625 129.554688 C 160.164062 129.066406 158.191406 128.785156 156.144531 128.726562 C 155.875 128.71875 155.601562 128.714844 155.328125 128.714844 C 154.558594 128.714844 153.851562 128.746094 153.167969 128.808594 L 152.976562 128.828125 C 152.9375 128.832031 152.875 128.839844 152.839844 128.84375 L 151.691406 129.058594 C 151.238281 129.132812 150.804688 129.238281 150.34375 129.351562 L 150.246094 129.375 C 147.757812 129.980469 145.679688 130.765625 143.890625 131.773438 C 142.898438 132.332031 141.949219 132.984375 141.070312 133.71875 C 140.183594 134.488281 139.390625 135.328125 138.726562 136.207031 C 137.488281 137.855469 136.574219 139.664062 136.011719 141.585938 C 135.722656 142.554688 135.515625 143.550781 135.390625 144.554688 C 135.386719 144.625 135.375 144.71875 135.363281 144.8125 C 135.347656 144.972656 135.328125 145.132812 135.320312 145.292969 L 135.289062 145.703125 L 135.285156 145.789062 C 135.28125 145.902344 135.269531 146 135.25 146.089844 L 135.261719 146.09375 L 135.097656 146.910156 L 134.363281 146.898438 C 134.203125 146.898438 134.074219 146.851562 134 146.820312 L 133.917969 146.804688 L 133.523438 146.800781 L 133.519531 146.734375 C 133.460938 146.722656 133.402344 146.714844 133.34375 146.703125 L 132.832031 146.640625 C 132.503906 146.59375 132.160156 146.550781 131.820312 146.535156 C 131.300781 146.492188 130.800781 146.472656 130.3125 146.472656 C 129.40625 146.472656 128.515625 146.539062 127.65625 146.671875 C 124.890625 147.085938 122.222656 148.28125 120.148438 150.039062 C 119.023438 150.988281 118.09375 151.988281 117.304688 153.101562 C 117.214844 153.238281 117.113281 153.382812 117.015625 153.535156 C 116.976562 153.601562 116.925781 153.6875 116.886719 153.757812 L 116.253906 154.902344 C 116.078125 155.203125 115.925781 155.519531 115.792969 155.789062 L 115.335938 156.726562 C 114.84375 157.855469 114.300781 159.195312 113.960938 160.589844 C 113.613281 162.03125 113.464844 163.402344 113.515625 164.671875 L 113.539062 165.230469 C 113.542969 165.328125 113.558594 165.445312 113.570312 165.5625 C 113.582031 165.644531 113.59375 165.730469 113.601562 165.816406 C 113.628906 166.160156 113.703125 166.542969 113.785156 166.949219 L 113.832031 167.199219 C 114.101562 168.304688 114.542969 169.382812 115.113281 170.320312 C 115.773438 171.398438 116.648438 172.390625 117.632812 173.191406 C 118.542969 173.9375 119.550781 174.542969 120.628906 175 L 122.117188 175.628906 L 120.785156 176.542969 C 119.609375 177.351562 118.539062 178.332031 117.613281 179.453125 C 116.253906 181.070312 115.1875 183.042969 114.519531 185.167969 C 113.867188 187.265625 113.609375 189.457031 113.761719 191.683594 C 113.835938 192.800781 114.019531 193.902344 114.300781 194.949219 C 114.605469 196.101562 115.011719 197.109375 115.53125 198.035156 C 115.648438 198.25 115.777344 198.449219 115.914062 198.664062 L 115.980469 198.765625 C 116.027344 198.835938 116.074219 198.902344 116.121094 198.964844 C 116.15625 199.011719 116.191406 199.058594 116.226562 199.105469 C 116.292969 199.199219 116.378906 199.3125 116.441406 199.386719 L 117.550781 200.691406 C 117.800781 200.960938 118.058594 201.222656 118.320312 201.488281 C 118.453125 201.625 118.585938 201.761719 118.71875 201.898438 C 118.953125 202.132812 119.21875 202.367188 119.496094 202.609375 C 119.652344 202.746094 119.804688 202.878906 119.957031 203.015625 C 121.855469 204.660156 124.136719 205.953125 126.53125 206.742188 C 128.234375 207.285156 130.035156 207.566406 131.882812 207.566406 C 132.617188 207.566406 133.355469 207.519531 134.078125 207.429688 C 136.296875 207.175781 138.585938 206.574219 140.894531 205.640625 C 141.941406 205.214844 143.011719 204.703125 144.074219 204.125 L 144.804688 203.710938 L 144.878906 203.671875 C 144.960938 203.625 145.046875 203.578125 145.148438 203.550781 L 146.523438 203.078125 C 146.523438 203.078125 146.363281 204.496094 146.363281 204.511719 L 146.476562 205.136719 C 146.566406 205.476562 146.667969 205.867188 146.78125 206.25 C 147.230469 207.640625 147.976562 209.019531 148.933594 210.21875 C 149.804688 211.320312 150.921875 212.339844 152.253906 213.253906 C 153.390625 214.035156 154.675781 214.710938 156.1875 215.320312 C 157.6875 215.90625 159.128906 216.351562 160.585938 216.683594 C 160.96875 216.769531 161.34375 216.84375 161.726562 216.910156 C 161.875 216.9375 162.007812 216.957031 162.140625 216.972656 L 162.863281 217.074219 C 163.4375 217.164062 164.007812 217.210938 164.609375 217.261719 C 164.789062 217.277344 164.972656 217.292969 165.15625 217.308594 C 165.765625 217.34375 166.402344 217.363281 167.023438 217.363281 C 169.585938 217.363281 171.992188 217.035156 174.167969 216.390625 C 174.367188 216.335938 174.578125 216.269531 174.804688 216.199219 C 174.984375 216.140625 175.175781 216.082031 175.371094 216.023438 C 175.507812 215.972656 175.648438 215.925781 175.792969 215.875 C 176.125 215.761719 176.46875 215.644531 176.816406 215.503906 C 177.996094 215.046875 179.136719 214.503906 180.214844 213.878906 C 182.742188 212.417969 184.976562 210.476562 186.507812 208.414062 L 187.382812 207.234375 L 188.03125 208.589844 L 188.167969 208.867188 C 188.285156 209.117188 188.40625 209.363281 188.535156 209.605469 L 189.144531 210.605469 C 189.453125 211.152344 189.824219 211.640625 190.21875 212.160156 L 190.46875 212.492188 C 192.023438 214.417969 193.777344 215.882812 195.679688 216.84375 C 197.617188 217.832031 199.90625 218.457031 202.3125 218.652344 C 203.441406 218.765625 204.546875 218.796875 205.773438 218.820312 C 205.992188 218.828125 206.210938 218.832031 206.429688 218.832031 C 206.589844 218.832031 207.527344 218.828125 207.527344 218.828125 Z M 207.527344 218.828125" fill="#ffffff"/><path fill-rule="nonzero" fill-opacity="1" d="M 226.140625 226.753906 C 226.53125 225.480469 227.382812 224.367188 228.433594 223.519531 C 229.355469 222.765625 230.519531 222.289062 231.675781 222.191406 C 232.03125 222.15625 232.386719 222.160156 232.734375 222.183594 C 233.03125 222.164062 233.308594 222.152344 233.550781 222.144531 C 233.796875 222.140625 234.007812 222.179688 234.164062 222.179688 C 234.84375 222.1875 235.507812 222.40625 236.128906 222.683594 C 236.285156 222.746094 236.425781 222.84375 236.574219 222.921875 C 236.71875 223.007812 236.875 223.085938 237.015625 223.179688 L 237.429688 223.472656 L 237.640625 223.617188 L 237.835938 223.777344 C 238.765625 224.5 239.414062 225.523438 239.789062 226.617188 C 239.890625 226.886719 239.957031 227.171875 240.019531 227.457031 C 240.097656 227.734375 240.117188 228.03125 240.15625 228.320312 C 240.199219 228.609375 240.179688 228.910156 240.195312 229.203125 C 240.183594 229.492188 240.164062 229.777344 240.136719 230.066406 C 240.035156 231.179688 239.535156 232.214844 238.914062 233.105469 C 238.199219 234.148438 237.167969 234.96875 236.015625 235.429688 C 235.820312 235.539062 235.617188 235.644531 235.40625 235.730469 C 235.058594 235.84375 234.703125 235.941406 234.371094 236.019531 C 234.023438 236.066406 233.699219 236.097656 233.414062 236.125 C 233.128906 236.144531 232.878906 236.125 232.695312 236.140625 C 231.898438 236.191406 231.09375 236.011719 230.320312 235.75 L 229.757812 235.507812 C 229.664062 235.464844 229.566406 235.429688 229.476562 235.378906 L 229.207031 235.226562 C 229.03125 235.125 228.847656 235.03125 228.671875 234.917969 C 228.5 234.800781 228.328125 234.683594 228.15625 234.566406 C 226.957031 233.746094 226.152344 232.410156 225.808594 230.988281 C 225.753906 230.8125 225.742188 230.621094 225.710938 230.441406 C 225.6875 230.253906 225.648438 230.078125 225.652344 229.886719 L 225.644531 229.328125 C 225.648438 229.140625 225.664062 228.96875 225.679688 228.789062 C 225.761719 228.085938 225.917969 227.410156 226.140625 226.753906 Z M 227.972656 230.007812 L 227.992188 230.296875 L 228.050781 230.589844 C 228.1875 231.300781 228.539062 231.988281 229.019531 232.574219 C 229.148438 232.710938 229.261719 232.867188 229.402344 232.996094 L 229.828125 233.382812 L 230.300781 233.726562 C 230.457031 233.84375 230.632812 233.925781 230.800781 234.03125 C 231.457031 234.382812 232.199219 234.644531 232.976562 234.703125 L 233.269531 234.742188 C 233.367188 234.75 233.464844 234.746094 233.5625 234.746094 L 233.792969 234.75 C 233.886719 234.707031 233.984375 234.660156 234.089844 234.609375 C 234.234375 234.542969 234.382812 234.449219 234.53125 234.367188 C 235.140625 234.023438 235.679688 233.53125 235.988281 233.273438 C 236.367188 232.984375 236.703125 232.644531 237.003906 232.277344 C 237.3125 231.914062 237.566406 231.503906 237.773438 231.066406 C 238.054688 230.476562 238.207031 229.816406 238.234375 229.152344 C 238.265625 228.5 238.160156 227.808594 237.953125 227.132812 C 237.761719 226.523438 237.460938 225.929688 237.050781 225.417969 C 236.644531 224.921875 236.171875 224.46875 235.632812 224.097656 C 235.628906 224.101562 235.625 224.101562 235.621094 224.101562 C 235.453125 224.148438 234.640625 224.0625 233.800781 224.117188 C 232.953125 224.15625 232.144531 224.386719 231.726562 224.511719 C 230.722656 224.765625 229.84375 225.320312 229.136719 226.203125 C 228.664062 226.792969 228.324219 227.527344 228.128906 228.289062 C 228.035156 228.667969 227.964844 229.070312 227.960938 229.441406 L 227.949219 229.722656 C 227.949219 229.816406 227.964844 229.910156 227.972656 230.007812 Z M 227.972656 230.007812" fill="#ffffff"/><g clip-path="url(#2282038bb1)"><path fill-rule="nonzero" fill-opacity="1" d="M 238.605469 244.964844 C 238.671875 244.71875 238.730469 244.472656 238.816406 244.230469 C 239.109375 243.292969 239.730469 242.476562 240.5 241.847656 C 241.179688 241.292969 242.035156 240.945312 242.882812 240.875 C 243.136719 240.851562 243.386719 240.855469 243.632812 240.871094 C 243.640625 240.871094 243.652344 240.867188 243.664062 240.867188 C 243.882812 240.851562 244.085938 240.84375 244.265625 240.835938 C 244.445312 240.835938 244.601562 240.863281 244.71875 240.859375 C 245.21875 240.867188 245.703125 241.03125 246.160156 241.230469 C 246.382812 241.34375 246.601562 241.46875 246.8125 241.597656 C 246.914062 241.667969 247.015625 241.742188 247.117188 241.8125 L 247.273438 241.917969 L 247.417969 242.035156 C 248.101562 242.570312 248.578125 243.320312 248.851562 244.125 C 248.929688 244.324219 248.976562 244.535156 249.023438 244.742188 C 249.082031 244.949219 249.09375 245.167969 249.125 245.378906 C 249.15625 245.589844 249.140625 245.8125 249.152344 246.027344 C 249.144531 246.238281 249.132812 246.449219 249.109375 246.660156 C 249.035156 247.480469 248.667969 248.242188 248.210938 248.898438 C 247.683594 249.664062 246.925781 250.269531 246.078125 250.609375 C 245.933594 250.6875 245.785156 250.765625 245.632812 250.828125 C 245.375 250.914062 245.113281 250.984375 244.867188 251.042969 C 244.613281 251.074219 244.375 251.097656 244.167969 251.121094 C 243.957031 251.136719 243.773438 251.121094 243.636719 251.132812 C 243.050781 251.167969 242.457031 251.035156 241.890625 250.84375 C 241.617188 250.71875 241.332031 250.621094 241.074219 250.460938 C 240.941406 250.382812 240.804688 250.3125 240.679688 250.234375 C 240.550781 250.148438 240.425781 250.0625 240.300781 249.976562 C 239.417969 249.371094 238.824219 248.390625 238.570312 247.34375 C 238.53125 247.214844 238.523438 247.074219 238.5 246.941406 C 238.480469 246.804688 238.453125 246.671875 238.457031 246.535156 L 238.449219 246.121094 C 238.453125 245.984375 238.472656 245.859375 238.480469 245.726562 C 238.5 245.464844 238.5625 245.21875 238.605469 244.964844 Z M 240.21875 247.046875 C 240.320312 247.574219 240.578125 248.078125 240.933594 248.507812 C 241.285156 248.941406 241.734375 249.304688 242.246094 249.578125 C 242.726562 249.839844 243.273438 250.03125 243.84375 250.074219 L 244.058594 250.101562 C 244.128906 250.105469 244.203125 250.105469 244.273438 250.105469 L 244.445312 250.105469 C 244.609375 250.035156 244.800781 249.941406 244.988281 249.828125 C 245.433594 249.574219 245.832031 249.210938 246.058594 249.023438 C 246.335938 248.808594 246.582031 248.558594 246.804688 248.289062 C 247.035156 248.023438 247.21875 247.71875 247.371094 247.398438 C 247.578125 246.964844 247.6875 246.480469 247.710938 245.988281 C 247.734375 245.511719 247.65625 245.003906 247.503906 244.507812 C 247.363281 244.054688 247.140625 243.621094 246.839844 243.242188 C 246.539062 242.878906 246.195312 242.546875 245.800781 242.277344 C 245.792969 242.277344 245.789062 242.277344 245.785156 242.28125 C 245.660156 242.324219 245.066406 242.25 244.449219 242.292969 C 243.828125 242.34375 243.226562 242.46875 242.925781 242.585938 C 242.730469 242.609375 242.570312 242.710938 242.386719 242.761719 C 242.300781 242.800781 242.222656 242.847656 242.136719 242.890625 L 242.007812 242.949219 L 241.890625 243.03125 C 241.5625 243.222656 241.285156 243.511719 241.019531 243.824219 C 240.671875 244.257812 240.421875 244.796875 240.28125 245.359375 C 240.136719 245.933594 240.105469 246.472656 240.21875 247.046875 Z M 240.21875 247.046875" fill="#ffffff"/></g><path fill-rule="nonzero" fill-opacity="1" d="M 145.464844 204.5 L 145.460938 204.496094 C 145.460938 204.492188 145.460938 204.492188 145.464844 204.5 Z M 145.464844 204.5" fill="#ffffff"/><g clip-path="url(#d2d37cde33)"><path fill-rule="nonzero" fill-opacity="1" d="M 113.105469 160.382812 C 113.441406 158.980469 113.96875 157.652344 114.53125 156.355469 L 114.996094 155.40625 C 115.148438 155.089844 115.304688 154.773438 115.480469 154.472656 L 115.984375 153.5625 L 116.109375 153.332031 C 116.15625 153.25 116.21875 153.148438 116.269531 153.070312 C 116.371094 152.902344 116.476562 152.746094 116.585938 152.589844 C 117.445312 151.375 118.453125 150.3125 119.578125 149.367188 C 121.816406 147.46875 124.625 146.230469 127.523438 145.800781 C 128.96875 145.578125 130.433594 145.539062 131.871094 145.652344 C 132.230469 145.671875 132.585938 145.714844 132.941406 145.761719 L 133.476562 145.832031 C 133.652344 145.855469 133.828125 145.890625 134.003906 145.921875 L 134.269531 145.972656 C 134.28125 145.972656 134.273438 145.972656 134.28125 145.976562 L 134.308594 145.988281 C 134.324219 145.996094 134.355469 146.015625 134.375 146.015625 L 134.394531 145.917969 C 134.394531 145.964844 134.402344 145.753906 134.410156 145.636719 L 134.4375 145.242188 C 134.453125 144.976562 134.488281 144.710938 134.515625 144.449219 C 134.644531 143.394531 134.863281 142.355469 135.164062 141.335938 C 135.761719 139.300781 136.746094 137.375 138.023438 135.671875 C 138.753906 134.707031 139.59375 133.828125 140.503906 133.039062 C 141.429688 132.269531 142.417969 131.585938 143.457031 131.003906 C 145.535156 129.835938 147.777344 129.066406 150.035156 128.515625 C 150.53125 128.394531 151.027344 128.273438 151.53125 128.191406 L 152.65625 127.980469 C 152.703125 127.96875 152.835938 127.953125 152.886719 127.949219 L 153.089844 127.929688 C 154.128906 127.832031 155.144531 127.816406 156.171875 127.84375 C 158.210938 127.902344 160.25 128.175781 162.234375 128.699219 C 163.230469 128.957031 164.207031 129.289062 165.152344 129.691406 C 165.632812 129.882812 166.09375 130.121094 166.554688 130.34375 C 167.007812 130.601562 167.464844 130.835938 167.894531 131.125 C 169.648438 132.222656 171.171875 133.683594 172.378906 135.347656 C 172.984375 136.207031 173.492188 137.128906 173.90625 138.082031 C 174.933594 135.097656 176.703125 132.1875 178.820312 129.996094 C 179.984375 128.777344 181.238281 127.78125 182.398438 127.019531 C 182.996094 126.664062 183.535156 126.308594 184.066406 126.058594 C 184.324219 125.925781 184.570312 125.800781 184.800781 125.683594 C 185.039062 125.578125 185.261719 125.480469 185.46875 125.394531 C 186.992188 124.730469 188.613281 124.25 190.257812 124.035156 C 190.464844 124.007812 190.667969 123.960938 190.875 123.945312 L 191.496094 123.894531 L 192.113281 123.847656 C 192.320312 123.828125 192.527344 123.8125 192.734375 123.820312 L 194.28125 123.820312 L 194.585938 123.84375 L 195.199219 123.890625 C 196.839844 123.988281 198.4375 124.304688 200.019531 124.664062 C 200.800781 124.859375 201.574219 125.09375 202.351562 125.304688 L 204.5 126.035156 C 204.5 126.035156 204.503906 126.035156 204.503906 126.035156 L 204.597656 126.054688 L 204.773438 126.097656 L 205.121094 126.1875 C 205.347656 126.25 205.570312 126.3125 205.792969 126.378906 C 206.238281 126.511719 206.675781 126.652344 207.109375 126.804688 C 209.351562 127.585938 211.5 128.640625 213.488281 129.972656 C 214.484375 130.640625 215.433594 131.378906 216.335938 132.175781 C 217.230469 132.984375 218.070312 133.859375 218.847656 134.789062 C 220.375 136.671875 221.640625 138.785156 222.484375 141.058594 L 222.800781 141.910156 L 223.0625 142.777344 C 223.253906 143.351562 223.367188 143.945312 223.511719 144.527344 C 223.585938 144.820312 223.625 145.117188 223.679688 145.414062 L 223.695312 145.523438 L 223.703125 145.570312 L 223.703125 145.597656 L 223.707031 145.644531 C 223.710938 145.699219 223.699219 145.785156 223.714844 145.839844 L 223.835938 145.800781 L 223.914062 145.773438 L 224.125 145.703125 C 224.917969 145.410156 225.722656 145.15625 226.535156 144.933594 C 228.160156 144.484375 229.824219 144.164062 231.515625 144.011719 C 234.609375 143.699219 237.824219 144.03125 240.796875 145.132812 C 242.285156 145.667969 243.683594 146.425781 244.984375 147.304688 C 245.648438 147.726562 246.246094 148.234375 246.855469 148.722656 C 247.429688 149.25 248.019531 149.757812 248.539062 150.335938 C 248.773438 150.585938 249.019531 150.820312 249.234375 151.082031 L 249.886719 151.859375 L 250.207031 152.25 L 250.503906 152.65625 L 251.089844 153.464844 C 251.285156 153.726562 251.496094 154.039062 251.667969 154.324219 C 251.851562 154.613281 252.023438 154.902344 252.191406 155.195312 C 252.523438 155.78125 252.835938 156.375 253.121094 156.976562 C 254.285156 159.382812 255.140625 161.9375 255.613281 164.578125 C 256.097656 167.214844 256.152344 169.945312 255.71875 172.601562 C 255.488281 173.925781 255.175781 175.238281 254.695312 176.492188 C 254.488281 177.128906 254.195312 177.730469 253.929688 178.34375 C 253.796875 178.648438 253.625 178.9375 253.476562 179.234375 C 253.3125 179.527344 253.175781 179.832031 252.992188 180.109375 C 252.097656 181.675781 250.957031 183.082031 249.730469 184.359375 C 249.691406 184.398438 249.648438 184.4375 249.605469 184.480469 C 252.429688 185.519531 255.242188 187.246094 257.375 189.289062 C 259.574219 191.355469 260.910156 193.773438 261.46875 195.304688 C 262.101562 196.921875 262.394531 198.6875 262.34375 200.429688 C 262.308594 202.175781 261.894531 203.871094 261.316406 205.460938 C 261.050781 206.269531 260.671875 207.015625 260.324219 207.78125 C 260.136719 208.152344 259.925781 208.511719 259.726562 208.878906 C 259.523438 209.242188 259.328125 209.609375 259.09375 209.949219 L 258.425781 210.992188 L 258.257812 211.253906 L 258.050781 211.53125 C 257.90625 211.714844 257.769531 211.90625 257.617188 212.082031 C 257.003906 212.78125 256.308594 213.390625 255.566406 213.910156 C 254.285156 214.808594 252.859375 215.394531 251.429688 215.808594 C 249.992188 216.21875 248.53125 216.4375 247.078125 216.527344 C 244.171875 216.699219 241.300781 216.34375 238.53125 215.691406 C 237.148438 215.351562 235.792969 214.929688 234.460938 214.445312 C 233.132812 213.941406 231.835938 213.378906 230.570312 212.746094 C 229.3125 212.097656 228.078125 211.410156 226.890625 210.640625 C 226.589844 210.457031 226.304688 210.25 226.011719 210.050781 C 225.71875 209.851562 225.421875 209.660156 225.140625 209.445312 L 224.289062 208.816406 L 224.144531 208.707031 L 224.09375 208.667969 L 223.996094 208.589844 L 223.886719 208.503906 L 223.816406 208.445312 L 223.746094 208.390625 L 223.714844 208.359375 L 223.703125 208.351562 L 223.703125 208.382812 C 223.699219 208.46875 223.6875 208.550781 223.667969 208.632812 C 223.660156 208.675781 223.644531 208.726562 223.632812 208.757812 C 223.566406 209.039062 223.472656 209.34375 223.382812 209.632812 C 223 210.796875 222.476562 211.917969 221.808594 212.953125 C 221.136719 213.984375 220.320312 214.925781 219.394531 215.730469 C 218.46875 216.539062 217.4375 217.210938 216.359375 217.757812 C 215.246094 218.3125 214.074219 218.71875 212.894531 219.023438 L 212.003906 219.234375 C 211.707031 219.292969 211.40625 219.339844 211.109375 219.390625 L 210.660156 219.46875 L 210.210938 219.519531 L 209.316406 219.617188 C 208.71875 219.65625 208.121094 219.699219 207.523438 219.710938 C 206.933594 219.707031 206.320312 219.722656 205.753906 219.707031 C 204.605469 219.679688 203.425781 219.652344 202.242188 219.535156 C 199.871094 219.339844 197.453125 218.742188 195.28125 217.632812 C 193.101562 216.53125 191.257812 214.882812 189.773438 213.035156 C 189.289062 212.390625 188.78125 211.761719 188.386719 211.066406 L 187.765625 210.042969 C 187.582031 209.691406 187.410156 209.332031 187.234375 208.976562 C 187.230469 208.964844 187.226562 208.953125 187.21875 208.941406 C 185.488281 211.269531 183.050781 213.257812 180.660156 214.640625 C 179.4375 215.351562 178.230469 215.90625 177.152344 216.320312 C 176.617188 216.539062 176.105469 216.699219 175.648438 216.863281 C 175.183594 217 174.773438 217.136719 174.417969 217.238281 C 171.394531 218.132812 168.203125 218.375 165.074219 218.1875 C 164.296875 218.117188 163.507812 218.066406 162.746094 217.949219 L 162.167969 217.867188 C 161.976562 217.839844 161.789062 217.820312 161.574219 217.78125 C 161.167969 217.710938 160.78125 217.632812 160.390625 217.542969 C 158.84375 217.195312 157.339844 216.71875 155.859375 216.140625 C 154.4375 215.566406 153.050781 214.871094 151.757812 213.980469 C 150.464844 213.097656 149.25 212.039062 148.246094 210.769531 C 147.238281 209.511719 146.433594 208.054688 145.933594 206.503906 C 145.816406 206.113281 145.714844 205.71875 145.613281 205.328125 L 145.503906 204.730469 L 145.476562 204.582031 L 145.464844 204.503906 C 145.464844 204.503906 145.464844 204.503906 145.464844 204.5 L 145.464844 204.507812 C 145.472656 204.527344 145.46875 204.503906 145.46875 204.507812 C 145.476562 204.476562 145.484375 204.425781 145.492188 204.367188 L 145.402344 204.394531 C 145.40625 204.390625 145.300781 204.449219 145.242188 204.480469 L 144.496094 204.902344 C 143.4375 205.480469 142.347656 206.003906 141.226562 206.460938 C 138.988281 207.367188 136.625 208.027344 134.1875 208.308594 C 131.546875 208.632812 128.808594 208.398438 126.253906 207.578125 C 123.707031 206.738281 121.351562 205.386719 119.363281 203.671875 C 118.9375 203.285156 118.488281 202.917969 118.082031 202.511719 C 117.683594 202.101562 117.277344 201.695312 116.890625 201.277344 L 115.785156 199.972656 C 115.691406 199.871094 115.601562 199.746094 115.507812 199.621094 C 115.417969 199.496094 115.320312 199.375 115.238281 199.246094 C 115.074219 198.988281 114.902344 198.734375 114.761719 198.46875 C 114.167969 197.417969 113.746094 196.308594 113.445312 195.175781 C 113.144531 194.046875 112.957031 192.898438 112.878906 191.742188 C 112.722656 189.433594 112.992188 187.105469 113.675781 184.90625 C 114.363281 182.710938 115.460938 180.636719 116.929688 178.890625 C 117.90625 177.710938 119.042969 176.667969 120.285156 175.816406 C 119.15625 175.335938 118.0625 174.683594 117.078125 173.878906 C 115.988281 172.996094 115.054688 171.914062 114.355469 170.78125 C 113.664062 169.636719 113.226562 168.449219 112.972656 167.386719 C 112.867188 166.855469 112.757812 166.359375 112.722656 165.90625 C 112.699219 165.679688 112.664062 165.46875 112.65625 165.265625 C 112.648438 165.066406 112.636719 164.878906 112.632812 164.707031 C 112.570312 163.234375 112.765625 161.78125 113.105469 160.382812 Z M 114.09375 165.457031 C 114.128906 165.847656 114.148438 166.242188 114.226562 166.625 C 114.261719 166.816406 114.28125 167.015625 114.328125 167.203125 L 114.472656 167.773438 C 114.691406 168.523438 114.964844 169.269531 115.351562 169.957031 C 115.726562 170.644531 116.171875 171.304688 116.6875 171.90625 C 117.203125 172.507812 117.777344 173.0625 118.394531 173.566406 C 119.179688 174.203125 120.003906 174.804688 120.902344 175.300781 C 120.980469 175.34375 121.050781 175.390625 121.117188 175.4375 C 121.246094 175.421875 121.371094 175.445312 121.46875 175.527344 C 121.789062 175.800781 121.359375 176.160156 121.132812 176.40625 C 121.019531 176.519531 120.785156 176.757812 120.449219 177.097656 C 120.367188 177.179688 120.277344 177.269531 120.179688 177.367188 C 120.089844 177.464844 119.992188 177.574219 119.890625 177.683594 C 119.6875 177.90625 119.460938 178.148438 119.242188 178.429688 C 119.128906 178.566406 119.011719 178.707031 118.890625 178.855469 C 118.777344 179.007812 118.660156 179.164062 118.542969 179.324219 C 118.292969 179.640625 118.078125 180.003906 117.832031 180.359375 C 117.378906 181.105469 116.941406 181.925781 116.570312 182.804688 C 115.828125 184.566406 115.394531 186.550781 115.285156 188.375 C 115.171875 190.199219 115.355469 191.847656 115.582031 193.015625 C 115.828125 194.390625 116.265625 195.726562 116.882812 196.90625 L 117.128906 197.335938 C 117.210938 197.476562 117.304688 197.609375 117.390625 197.746094 C 117.480469 197.878906 117.578125 198 117.671875 198.128906 C 117.765625 198.253906 117.902344 198.398438 118.015625 198.535156 L 118.722656 199.363281 C 118.835938 199.503906 118.960938 199.636719 119.089844 199.765625 L 119.46875 200.152344 C 121.46875 202.226562 123.84375 203.898438 126.503906 204.855469 C 129.664062 206.015625 133.191406 206.085938 136.558594 205.277344 C 138.246094 204.878906 139.90625 204.300781 141.496094 203.558594 C 142.296875 203.191406 143.082031 202.792969 143.84375 202.351562 L 143.917969 202.308594 L 144.035156 202.238281 L 144.265625 202.09375 L 144.730469 201.8125 C 144.882812 201.71875 145.058594 201.585938 145.222656 201.476562 C 145.390625 201.363281 145.554688 201.253906 145.722656 201.132812 L 147.738281 199.613281 C 147.753906 200.03125 147.753906 200.488281 147.761719 200.917969 C 147.765625 201.351562 147.773438 201.785156 147.796875 202.222656 L 147.859375 203.519531 C 147.863281 203.628906 147.875 203.726562 147.886719 203.828125 C 147.890625 203.878906 147.902344 203.933594 147.910156 203.992188 L 147.933594 204.113281 L 147.984375 204.441406 L 148.039062 204.765625 L 148.117188 205.078125 C 148.167969 205.289062 148.21875 205.5 148.277344 205.707031 C 148.421875 206.117188 148.542969 206.535156 148.734375 206.925781 C 148.894531 207.328125 149.117188 207.703125 149.324219 208.089844 C 149.5625 208.453125 149.789062 208.832031 150.0625 209.171875 C 151.121094 210.582031 152.519531 211.746094 154.050781 212.710938 C 155.589844 213.664062 157.273438 214.417969 159.015625 215.003906 C 159.886719 215.296875 160.773438 215.546875 161.664062 215.742188 C 162.101562 215.839844 162.5625 215.902344 163.019531 215.984375 L 163.710938 216.097656 L 164.398438 216.179688 C 167.878906 216.613281 171.453125 216.410156 174.851562 215.464844 C 178.25 214.53125 181.453125 212.84375 184.191406 210.585938 C 185.054688 209.863281 185.921875 209.128906 186.707031 208.308594 C 186.792969 208.214844 186.886719 208.136719 186.980469 208.074219 C 186.992188 207.953125 187.03125 207.847656 187.117188 207.765625 C 187.445312 207.46875 187.765625 207.964844 187.996094 208.238281 C 188.101562 208.367188 188.308594 208.652344 188.597656 209.066406 C 188.734375 209.277344 188.914062 209.5 189.113281 209.746094 C 189.3125 209.996094 189.53125 210.269531 189.765625 210.566406 C 190.734375 211.707031 192.042969 213.136719 193.695312 214.25 C 195.332031 215.382812 197.273438 216.152344 199.128906 216.53125 C 200.984375 216.925781 202.753906 216.964844 204.074219 216.992188 L 205.253906 217.007812 C 205.648438 217.007812 206.066406 217.019531 206.441406 217.007812 L 207.585938 216.988281 L 208.714844 216.917969 C 210.21875 216.792969 211.691406 216.539062 213.078125 216.097656 C 215.871094 215.25 218.261719 213.523438 219.703125 211.074219 C 220.167969 210.296875 220.535156 209.457031 220.800781 208.578125 C 220.835938 208.46875 220.871094 208.359375 220.898438 208.246094 L 220.949219 208.0625 C 220.980469 207.9375 221.007812 207.824219 221.03125 207.703125 L 221.160156 206.976562 C 221.171875 206.914062 221.183594 206.855469 221.191406 206.792969 L 221.207031 206.59375 L 221.242188 206.199219 C 221.304688 205.125 221.320312 203.851562 221.355469 202.746094 L 221.554688 202.898438 C 221.585938 202.925781 221.605469 202.9375 221.640625 202.96875 L 221.753906 203.066406 L 222.199219 203.460938 L 223.089844 204.246094 C 223.382812 204.503906 223.6875 204.78125 223.96875 205.015625 L 224.824219 205.738281 L 225.675781 206.457031 C 225.847656 206.601562 225.886719 206.625 225.972656 206.691406 L 226.214844 206.871094 C 226.535156 207.109375 226.84375 207.363281 227.175781 207.585938 C 228.472656 208.515625 229.84375 209.347656 231.257812 210.089844 C 234.089844 211.578125 237.125 212.710938 240.257812 213.402344 C 242.125 213.804688 244.03125 214.027344 245.933594 214.039062 C 246.882812 214.023438 247.835938 213.992188 248.769531 213.851562 L 249.121094 213.808594 L 249.46875 213.746094 C 249.699219 213.699219 249.933594 213.664062 250.164062 213.613281 C 250.617188 213.503906 251.078125 213.402344 251.519531 213.25 C 253.300781 212.707031 254.960938 211.777344 256.128906 210.414062 L 256.339844 210.15625 C 256.414062 210.070312 256.484375 209.984375 256.550781 209.878906 L 256.957031 209.28125 C 257.222656 208.878906 257.519531 208.496094 257.75 208.074219 C 257.988281 207.660156 258.246094 207.25 258.476562 206.828125 L 259.117188 205.542969 C 259.855469 203.890625 260.367188 202.128906 260.480469 200.332031 C 260.601562 198.53125 260.261719 196.714844 259.566406 195.039062 C 259.488281 194.824219 259.386719 194.621094 259.28125 194.417969 L 258.976562 193.808594 L 258.625 193.222656 L 258.445312 192.925781 L 258.25 192.644531 L 257.855469 192.082031 L 257.425781 191.542969 C 257.148438 191.175781 256.816406 190.851562 256.515625 190.503906 C 255.230469 189.179688 253.769531 188.015625 252.207031 187.011719 C 251.210938 186.375 250.203125 185.742188 249.152344 185.191406 C 249.027344 185.125 248.914062 185.054688 248.824219 184.972656 C 248.707031 184.992188 248.59375 184.984375 248.488281 184.929688 C 248.058594 184.691406 248.460938 184.175781 248.667969 183.835938 C 248.859375 183.519531 249.585938 182.546875 250.414062 181.089844 C 251.253906 179.640625 252.15625 177.683594 252.710938 175.511719 L 252.820312 175.105469 L 252.902344 174.691406 C 252.957031 174.414062 253.015625 174.136719 253.070312 173.855469 C 253.109375 173.574219 253.148438 173.292969 253.1875 173.011719 L 253.246094 172.589844 L 253.277344 172.164062 C 253.394531 171.035156 253.359375 169.90625 253.304688 168.835938 C 253.226562 167.761719 253.074219 166.746094 252.902344 165.828125 C 252.808594 165.371094 252.714844 164.9375 252.617188 164.53125 C 252.507812 164.125 252.429688 163.746094 252.320312 163.402344 C 252.101562 162.59375 251.828125 161.792969 251.539062 161.003906 C 251.238281 160.214844 250.910156 159.4375 250.546875 158.671875 C 250.179688 157.914062 249.785156 157.164062 249.359375 156.449219 C 249.144531 156.09375 248.929688 155.742188 248.707031 155.429688 L 247.957031 154.402344 C 246.933594 153.070312 245.804688 151.859375 244.53125 150.820312 C 243.261719 149.78125 241.859375 148.925781 240.351562 148.296875 C 237.691406 147.171875 234.714844 146.800781 231.75 147.046875 C 230.265625 147.160156 228.785156 147.433594 227.328125 147.824219 C 226.601562 148.023438 225.882812 148.242188 225.171875 148.5 L 224.292969 148.847656 C 223.972656 148.988281 223.632812 149.144531 223.304688 149.296875 L 221.296875 150.320312 C 221.273438 150.253906 221.265625 150.15625 221.253906 150.0625 L 221.222656 149.777344 L 221.160156 149.214844 L 221.039062 148.09375 L 220.914062 146.972656 C 220.894531 146.78125 220.863281 146.601562 220.832031 146.421875 L 220.757812 145.988281 L 220.660156 145.402344 L 220.53125 144.828125 C 220.445312 144.445312 220.363281 144.058594 220.242188 143.6875 C 219.816406 142.175781 219.222656 140.710938 218.457031 139.332031 C 216.976562 136.644531 214.800781 134.335938 212.269531 132.503906 C 211.007812 131.582031 209.640625 130.789062 208.230469 130.097656 C 207.519531 129.75 206.796875 129.441406 206.0625 129.15625 C 205.695312 129.011719 205.328125 128.882812 204.957031 128.757812 C 204.769531 128.695312 204.582031 128.632812 204.398438 128.578125 L 204.121094 128.5 L 203.984375 128.460938 L 203.804688 128.414062 L 202.136719 127.789062 C 201.605469 127.574219 201.054688 127.429688 200.515625 127.253906 L 199.699219 127 C 199.425781 126.921875 199.148438 126.859375 198.871094 126.789062 C 198.320312 126.664062 197.773438 126.496094 197.210938 126.414062 C 196.710938 126.332031 196.207031 126.21875 195.703125 126.160156 L 194.183594 126 L 192.65625 125.953125 C 192.148438 125.960938 191.644531 125.996094 191.132812 126.019531 C 190.628906 126.058594 190.125 126.140625 189.621094 126.199219 C 189.117188 126.285156 188.625 126.402344 188.125 126.503906 C 187.636719 126.652344 187.144531 126.78125 186.664062 126.949219 L 185.949219 127.21875 L 185.589844 127.355469 L 185.246094 127.519531 C 183.390625 128.367188 181.664062 129.527344 180.1875 130.960938 C 178.691406 132.378906 177.414062 134.03125 176.351562 135.8125 C 175.675781 136.945312 175.019531 138.097656 174.480469 139.3125 C 174.453125 139.371094 174.425781 139.425781 174.398438 139.476562 C 174.4375 139.726562 174.421875 139.960938 174.246094 140.082031 C 174.070312 140.203125 173.925781 140.105469 173.800781 139.953125 C 173.761719 139.953125 173.722656 139.949219 173.679688 139.9375 C 173.472656 139.855469 173.449219 139.679688 173.484375 139.46875 C 173.457031 139.421875 173.425781 139.363281 173.390625 139.300781 C 173.324219 139.167969 173.230469 139.011719 173.117188 138.832031 C 173.003906 138.648438 172.878906 138.4375 172.734375 138.207031 C 172.601562 137.96875 172.414062 137.734375 172.234375 137.46875 C 171.5 136.421875 170.410156 135.183594 169.046875 134.128906 C 167.679688 133.089844 166.0625 132.222656 164.488281 131.675781 C 163.710938 131.382812 162.933594 131.183594 162.234375 130.996094 C 161.523438 130.832031 160.882812 130.699219 160.332031 130.605469 C 159.046875 130.382812 157.734375 130.246094 156.417969 130.210938 C 155.761719 130.1875 155.101562 130.191406 154.449219 130.21875 C 154.125 130.234375 153.796875 130.25 153.480469 130.277344 L 153.242188 130.300781 L 153.132812 130.3125 L 153.109375 130.316406 L 153.066406 130.324219 L 152.578125 130.414062 C 149.964844 130.882812 147.40625 131.621094 145.105469 132.832031 C 142.453125 134.214844 140.15625 136.25 138.714844 138.851562 C 137.972656 140.136719 137.441406 141.546875 137.101562 143.003906 C 136.925781 143.734375 136.804688 144.480469 136.734375 145.226562 C 136.710938 145.632812 136.660156 145.835938 136.679688 146.679688 C 136.679688 147.023438 136.714844 147.390625 136.746094 147.757812 L 136.847656 148.851562 C 136.769531 148.859375 136.640625 148.820312 136.53125 148.796875 L 136.1875 148.71875 L 135.507812 148.558594 C 135.058594 148.453125 134.613281 148.34375 134.160156 148.253906 L 133.285156 148.085938 C 133.03125 148.042969 132.777344 148.011719 132.523438 147.972656 C 129.304688 147.503906 125.960938 147.964844 123.078125 149.460938 C 121.640625 150.210938 120.320312 151.195312 119.191406 152.371094 C 118.632812 152.953125 118.09375 153.597656 117.6875 154.25 C 117.265625 154.972656 116.816406 155.6875 116.445312 156.429688 C 115.707031 157.828125 115.070312 159.285156 114.652344 160.804688 C 114.234375 162.316406 113.988281 163.890625 114.09375 165.457031 Z M 114.09375 165.457031" fill="#ffffff"/></g></svg>