<svg version="1.0" preserveAspectRatio="xMidYMid meet" viewBox="108.60000000000001 108.14099740461599 157.5 158.999996184" zoomAndPan="magnify" xmlns:xlink="http://www.w3.org/1999/xlink" xmlns="http://www.w3.org/2000/svg" style="max-height: 500px" width="157.5" height="158.999996184"><defs><clipPath id="03adef5f35"><path clip-rule="nonzero" d="M 175 240 L 262.5 240 L 262.5 262.5 L 175 262.5 Z M 175 240"/></clipPath><clipPath id="6a98788685"><path clip-rule="nonzero" d="M 175 221 L 262.5 221 L 262.5 244 L 175 244 Z M 175 221"/></clipPath><clipPath id="13cc8d8bb6"><path clip-rule="nonzero" d="M 175 187 L 262.5 187 L 262.5 225 L 175 225 Z M 175 187"/></clipPath><clipPath id="6196ca97c3"><path clip-rule="nonzero" d="M 256 203 L 262.5 203 L 262.5 247 L 256 247 Z M 256 203"/></clipPath><clipPath id="97771c03cb"><path clip-rule="nonzero" d="M 112.5 165 L 200 165 L 200 188 L 112.5 188 Z M 112.5 165"/></clipPath><clipPath id="527bcb8040"><path clip-rule="nonzero" d="M 112.5 146 L 200 146 L 200 169 L 112.5 169 Z M 112.5 146"/></clipPath><clipPath id="e2a58a08ea"><path clip-rule="nonzero" d="M 112.5 203 L 169 203 L 169 225 L 112.5 225 Z M 112.5 203"/></clipPath><clipPath id="0fb30fd7cc"><path clip-rule="nonzero" d="M 112.5 221 L 169 221 L 169 244 L 112.5 244 Z M 112.5 221"/></clipPath><clipPath id="1d52da1134"><path clip-rule="nonzero" d="M 112.5 184 L 169 184 L 169 207 L 112.5 207 Z M 112.5 184"/></clipPath><clipPath id="c026c2cd4d"><path clip-rule="nonzero" d="M 112.5 112.5 L 200 112.5 L 200 150 L 112.5 150 Z M 112.5 112.5"/></clipPath><clipPath id="5b16a326db"><path clip-rule="nonzero" d="M 112.5 128 L 119 128 L 119 229 L 112.5 229 Z M 112.5 128"/></clipPath></defs><g clip-path="url(#03adef5f35)"><path fill-rule="nonzero" fill-opacity="1" d="M 218.75 262.5 C 197.539062 262.5 175 255.925781 175 243.75 C 175 242.023438 176.398438 240.625 178.125 240.625 C 179.851562 240.625 181.25 242.023438 181.25 243.75 C 181.25 248.96875 195.511719 256.25 218.75 256.25 C 241.988281 256.25 256.25 248.96875 256.25 243.75 C 256.25 242.023438 257.648438 240.625 259.375 240.625 C 261.101562 240.625 262.5 242.023438 262.5 243.75 C 262.5 255.925781 239.960938 262.5 218.75 262.5 Z M 218.75 262.5" fill="#ffffff"/></g><g clip-path="url(#6a98788685)"><path fill-rule="nonzero" fill-opacity="1" d="M 218.75 243.75 C 197.539062 243.75 175 237.175781 175 225 C 175 223.273438 176.398438 221.875 178.125 221.875 C 179.851562 221.875 181.25 223.273438 181.25 225 C 181.25 230.21875 195.511719 237.5 218.75 237.5 C 241.988281 237.5 256.25 230.21875 256.25 225 C 256.25 223.273438 257.648438 221.875 259.375 221.875 C 261.101562 221.875 262.5 223.273438 262.5 225 C 262.5 237.175781 239.960938 243.75 218.75 243.75 Z M 218.75 243.75" fill="#ffffff"/></g><g clip-path="url(#13cc8d8bb6)"><path fill-rule="nonzero" fill-opacity="1" d="M 218.75 225 C 197.539062 225 175 218.425781 175 206.25 C 175 194.074219 197.539062 187.5 218.75 187.5 C 239.960938 187.5 262.5 194.074219 262.5 206.25 C 262.5 218.425781 239.960938 225 218.75 225 Z M 218.75 193.75 C 195.511719 193.75 181.25 201.03125 181.25 206.25 C 181.25 211.46875 195.511719 218.75 218.75 218.75 C 241.988281 218.75 256.25 211.46875 256.25 206.25 C 256.25 201.03125 241.988281 193.75 218.75 193.75 Z M 218.75 193.75" fill="#ffffff"/></g><g clip-path="url(#6196ca97c3)"><path fill-rule="nonzero" fill-opacity="1" d="M 259.375 246.875 C 257.648438 246.875 256.25 245.476562 256.25 243.75 L 256.25 206.25 C 256.25 204.523438 257.648438 203.125 259.375 203.125 C 261.101562 203.125 262.5 204.523438 262.5 206.25 L 262.5 243.75 C 262.5 245.476562 261.101562 246.875 259.375 246.875 Z M 259.375 246.875" fill="#ffffff"/></g><path fill-rule="nonzero" fill-opacity="1" d="M 178.125 246.875 C 176.398438 246.875 175 245.476562 175 243.75 L 175 206.25 C 175 204.523438 176.398438 203.125 178.125 203.125 C 179.851562 203.125 181.25 204.523438 181.25 206.25 L 181.25 243.75 C 181.25 245.476562 179.851562 246.875 178.125 246.875 Z M 178.125 246.875" fill="#ffffff"/><g clip-path="url(#97771c03cb)"><path fill-rule="nonzero" fill-opacity="1" d="M 156.25 187.5 C 135.039062 187.5 112.5 180.925781 112.5 168.75 C 112.5 167.023438 113.898438 165.625 115.625 165.625 C 117.351562 165.625 118.75 167.023438 118.75 168.75 C 118.75 173.96875 133.011719 181.25 156.25 181.25 C 179.488281 181.25 193.75 173.96875 193.75 168.75 C 193.75 167.023438 195.148438 165.625 196.875 165.625 C 198.601562 165.625 200 167.023438 200 168.75 C 200 180.925781 177.460938 187.5 156.25 187.5 Z M 156.25 187.5" fill="#ffffff"/></g><g clip-path="url(#527bcb8040)"><path fill-rule="nonzero" fill-opacity="1" d="M 156.25 168.75 C 135.039062 168.75 112.5 162.175781 112.5 150 C 112.5 148.273438 113.898438 146.875 115.625 146.875 C 117.351562 146.875 118.75 148.273438 118.75 150 C 118.75 155.21875 133.011719 162.5 156.25 162.5 C 179.488281 162.5 193.75 155.21875 193.75 150 C 193.75 148.273438 195.148438 146.875 196.875 146.875 C 198.601562 146.875 200 148.273438 200 150 C 200 162.175781 177.460938 168.75 156.25 168.75 Z M 156.25 168.75" fill="#ffffff"/></g><g clip-path="url(#e2a58a08ea)"><path fill-rule="nonzero" fill-opacity="1" d="M 156.25 225 C 135.039062 225 112.5 218.425781 112.5 206.25 C 112.5 204.523438 113.898438 203.125 115.625 203.125 C 117.351562 203.125 118.75 204.523438 118.75 206.25 C 118.75 211.46875 133.011719 218.75 156.25 218.75 C 159.648438 218.75 162.613281 218.613281 165.292969 218.332031 C 166.988281 218.144531 168.550781 219.394531 168.730469 221.105469 C 168.914062 222.820312 167.667969 224.363281 165.957031 224.542969 C 163.042969 224.855469 159.867188 225 156.25 225 Z M 156.25 225" fill="#ffffff"/></g><g clip-path="url(#0fb30fd7cc)"><path fill-rule="nonzero" fill-opacity="1" d="M 156.25 243.75 C 135.039062 243.75 112.5 237.175781 112.5 225 C 112.5 223.273438 113.898438 221.875 115.625 221.875 C 117.351562 221.875 118.75 223.273438 118.75 225 C 118.75 230.21875 133.011719 237.5 156.25 237.5 C 159.648438 237.5 162.613281 237.363281 165.292969 237.082031 C 166.988281 236.863281 168.550781 238.144531 168.730469 239.855469 C 168.914062 241.570312 167.667969 243.113281 165.957031 243.292969 C 163.042969 243.605469 159.867188 243.75 156.25 243.75 Z M 156.25 243.75" fill="#ffffff"/></g><g clip-path="url(#1d52da1134)"><path fill-rule="nonzero" fill-opacity="1" d="M 156.25 206.25 C 135.039062 206.25 112.5 199.675781 112.5 187.5 C 112.5 185.773438 113.898438 184.375 115.625 184.375 C 117.351562 184.375 118.75 185.773438 118.75 187.5 C 118.75 192.71875 133.011719 200 156.25 200 C 159.648438 200 162.613281 199.863281 165.292969 199.582031 C 166.988281 199.382812 168.550781 200.636719 168.730469 202.355469 C 168.914062 204.070312 167.667969 205.613281 165.957031 205.792969 C 163.042969 206.105469 159.867188 206.25 156.25 206.25 Z M 156.25 206.25" fill="#ffffff"/></g><g clip-path="url(#c026c2cd4d)"><path fill-rule="nonzero" fill-opacity="1" d="M 156.25 150 C 135.039062 150 112.5 143.425781 112.5 131.25 C 112.5 119.074219 135.039062 112.5 156.25 112.5 C 177.460938 112.5 200 119.074219 200 131.25 C 200 143.425781 177.460938 150 156.25 150 Z M 156.25 118.75 C 133.011719 118.75 118.75 126.03125 118.75 131.25 C 118.75 136.46875 133.011719 143.75 156.25 143.75 C 179.488281 143.75 193.75 136.46875 193.75 131.25 C 193.75 126.03125 179.488281 118.75 156.25 118.75 Z M 156.25 118.75" fill="#ffffff"/></g><g clip-path="url(#5b16a326db)"><path fill-rule="nonzero" fill-opacity="1" d="M 115.625 228.125 C 113.898438 228.125 112.5 226.726562 112.5 225 L 112.5 131.25 C 112.5 129.523438 113.898438 128.125 115.625 128.125 C 117.351562 128.125 118.75 129.523438 118.75 131.25 L 118.75 225 C 118.75 226.726562 117.351562 228.125 115.625 228.125 Z M 115.625 228.125" fill="#ffffff"/></g><path fill-rule="nonzero" fill-opacity="1" d="M 196.875 171.875 C 195.148438 171.875 193.75 170.476562 193.75 168.75 L 193.75 131.25 C 193.75 129.523438 195.148438 128.125 196.875 128.125 C 198.601562 128.125 200 129.523438 200 131.25 L 200 168.75 C 200 170.476562 198.601562 171.875 196.875 171.875 Z M 196.875 171.875" fill="#ffffff"/></svg>