<svg version="1.0" preserveAspectRatio="xMidYMid meet" viewBox="45.6 93.59999775360001 279 131.999996832" zoomAndPan="magnify" xmlns:xlink="http://www.w3.org/1999/xlink" xmlns="http://www.w3.org/2000/svg" style="max-height: 500px" width="279" height="131.999996832"><defs><g/><clipPath id="8800aa6193"><path clip-rule="nonzero" d="M 273 99 L 275.617188 99 L 275.617188 102 L 273 102 Z M 273 99"/></clipPath><clipPath id="4f5162bb8f"><path clip-rule="nonzero" d="M 252 98.203125 L 275.617188 98.203125 L 275.617188 118 L 252 118 Z M 252 98.203125"/></clipPath><clipPath id="a995ecc5fc"><path clip-rule="nonzero" d="M 125.617188 110 L 132 110 L 132 119 L 125.617188 119 Z M 125.617188 110"/></clipPath></defs><g fill-opacity="1" fill="#374f59"><g transform="translate(128.960927, 216.894185)"><g><path d="M 0.90625 0 L 0.90625 -7.816406 L 3.113281 -7.816406 C 3.792969 -7.816406 4.394531 -7.667969 4.917969 -7.367188 C 5.441406 -7.066406 5.84375 -6.636719 6.128906 -6.082031 C 6.414062 -5.527344 6.558594 -4.890625 6.558594 -4.171875 L 6.558594 -3.671875 C 6.558594 -2.933594 6.417969 -2.289062 6.132812 -1.734375 C 5.847656 -1.179688 5.441406 -0.753906 4.914062 -0.457031 C 4.386719 -0.160156 3.773438 -0.0078125 3.070312 0 Z M 1.9375 -6.96875 L 1.9375 -0.84375 L 3.023438 -0.84375 C 3.816406 -0.84375 4.433594 -1.089844 4.878906 -1.582031 C 5.320312 -2.078125 5.539062 -2.78125 5.539062 -3.695312 L 5.539062 -4.148438 C 5.539062 -5.039062 5.332031 -5.726562 4.914062 -6.21875 C 4.496094 -6.710938 3.90625 -6.960938 3.140625 -6.96875 Z M 1.9375 -6.96875"/></g></g></g><g fill-opacity="1" fill="#374f59"><g transform="translate(136.169183, 216.894185)"><g><path d="M 3.558594 -4.917969 C 3.410156 -4.941406 3.246094 -4.957031 3.070312 -4.957031 C 2.417969 -4.957031 1.976562 -4.679688 1.746094 -4.125 L 1.746094 0 L 0.75 0 L 0.75 -5.808594 L 1.71875 -5.808594 L 1.734375 -5.136719 C 2.058594 -5.65625 2.519531 -5.917969 3.121094 -5.917969 C 3.3125 -5.917969 3.460938 -5.890625 3.558594 -5.839844 Z M 3.558594 -4.917969"/></g></g></g><g fill-opacity="1" fill="#374f59"><g transform="translate(139.786706, 216.894185)"><g><path d="M 3.164062 0.105469 C 2.375 0.105469 1.734375 -0.152344 1.238281 -0.667969 C 0.746094 -1.1875 0.5 -1.878906 0.5 -2.742188 L 0.5 -2.925781 C 0.5 -3.503906 0.609375 -4.015625 0.828125 -4.46875 C 1.050781 -4.921875 1.355469 -5.277344 1.753906 -5.53125 C 2.148438 -5.789062 2.578125 -5.917969 3.039062 -5.917969 C 3.792969 -5.917969 4.378906 -5.667969 4.800781 -5.171875 C 5.21875 -4.671875 5.425781 -3.960938 5.425781 -3.035156 L 5.425781 -2.621094 L 1.492188 -2.621094 C 1.507812 -2.046875 1.675781 -1.585938 1.996094 -1.230469 C 2.316406 -0.878906 2.722656 -0.703125 3.214844 -0.703125 C 3.566406 -0.703125 3.863281 -0.773438 4.105469 -0.917969 C 4.351562 -1.0625 4.5625 -1.25 4.746094 -1.488281 L 5.351562 -1.015625 C 4.867188 -0.265625 4.136719 0.105469 3.164062 0.105469 Z M 3.039062 -5.101562 C 2.636719 -5.101562 2.300781 -4.953125 2.03125 -4.664062 C 1.757812 -4.371094 1.589844 -3.960938 1.523438 -3.4375 L 4.433594 -3.4375 L 4.433594 -3.511719 C 4.40625 -4.015625 4.269531 -4.40625 4.027344 -4.683594 C 3.78125 -4.960938 3.453125 -5.101562 3.039062 -5.101562 Z M 3.039062 -5.101562"/></g></g></g><g fill-opacity="1" fill="#374f59"><g transform="translate(145.610203, 216.894185)"><g><path d="M 4.335938 0 C 4.28125 -0.113281 4.234375 -0.320312 4.199219 -0.613281 C 3.738281 -0.132812 3.183594 0.105469 2.542969 0.105469 C 1.972656 0.105469 1.503906 -0.0546875 1.136719 -0.378906 C 0.769531 -0.703125 0.585938 -1.113281 0.585938 -1.609375 C 0.585938 -2.214844 0.816406 -2.683594 1.273438 -3.019531 C 1.734375 -3.355469 2.382812 -3.523438 3.214844 -3.523438 L 4.183594 -3.523438 L 4.183594 -3.976562 C 4.183594 -4.324219 4.078125 -4.601562 3.871094 -4.808594 C 3.664062 -5.011719 3.355469 -5.117188 2.953125 -5.117188 C 2.597656 -5.117188 2.300781 -5.027344 2.0625 -4.847656 C 1.820312 -4.667969 1.703125 -4.453125 1.703125 -4.199219 L 0.703125 -4.199219 C 0.703125 -4.488281 0.804688 -4.769531 1.011719 -5.039062 C 1.21875 -5.308594 1.496094 -5.523438 1.847656 -5.679688 C 2.203125 -5.835938 2.589844 -5.917969 3.011719 -5.917969 C 3.679688 -5.917969 4.207031 -5.75 4.585938 -5.414062 C 4.964844 -5.078125 5.160156 -4.617188 5.175781 -4.03125 L 5.175781 -1.359375 C 5.175781 -0.824219 5.242188 -0.402344 5.378906 -0.0859375 L 5.378906 0 Z M 2.691406 -0.757812 C 3 -0.757812 3.296875 -0.835938 3.574219 -1 C 3.855469 -1.160156 4.058594 -1.367188 4.183594 -1.625 L 4.183594 -2.820312 L 3.402344 -2.820312 C 2.1875 -2.820312 1.578125 -2.460938 1.578125 -1.75 C 1.578125 -1.4375 1.683594 -1.195312 1.890625 -1.019531 C 2.097656 -0.84375 2.363281 -0.757812 2.691406 -0.757812 Z M 2.691406 -0.757812"/></g></g></g><g fill-opacity="1" fill="#374f59"><g transform="translate(151.589352, 216.894185)"><g><path d="M 1.6875 -5.808594 L 1.710938 -5.164062 C 2.136719 -5.664062 2.714844 -5.917969 3.4375 -5.917969 C 4.25 -5.917969 4.800781 -5.605469 5.09375 -4.980469 C 5.289062 -5.261719 5.539062 -5.488281 5.847656 -5.660156 C 6.160156 -5.832031 6.523438 -5.917969 6.945312 -5.917969 C 8.222656 -5.917969 8.867188 -5.242188 8.890625 -3.890625 L 8.890625 0 L 7.898438 0 L 7.898438 -3.832031 C 7.898438 -4.25 7.800781 -4.558594 7.613281 -4.765625 C 7.421875 -4.96875 7.105469 -5.074219 6.65625 -5.074219 C 6.289062 -5.074219 5.984375 -4.964844 5.738281 -4.742188 C 5.496094 -4.523438 5.355469 -4.226562 5.316406 -3.855469 L 5.316406 0 L 4.316406 0 L 4.316406 -3.804688 C 4.316406 -4.652344 3.902344 -5.074219 3.078125 -5.074219 C 2.425781 -5.074219 1.980469 -4.796875 1.738281 -4.242188 L 1.738281 0 L 0.746094 0 L 0.746094 -5.808594 Z M 1.6875 -5.808594"/></g></g></g><g fill-opacity="1" fill="#374f59"><g transform="translate(161.223617, 216.894185)"><g><path d="M 0.71875 1.558594 L 0.15625 1.171875 C 0.492188 0.703125 0.667969 0.21875 0.683594 -0.277344 L 0.683594 -1.175781 L 1.652344 -1.175781 L 1.652344 -0.398438 C 1.652344 -0.0351562 1.566406 0.324219 1.386719 0.6875 C 1.210938 1.046875 0.988281 1.339844 0.71875 1.558594 Z M 0.71875 1.558594"/></g></g></g><g fill-opacity="1" fill="#374f59"><g transform="translate(163.381263, 216.894185)"><g/></g></g><g fill-opacity="1" fill="#374f59"><g transform="translate(166.102473, 216.894185)"><g><path d="M 1.9375 -3.058594 L 1.9375 0 L 0.90625 0 L 0.90625 -7.816406 L 3.789062 -7.816406 C 4.644531 -7.816406 5.316406 -7.597656 5.800781 -7.160156 C 6.285156 -6.726562 6.527344 -6.148438 6.527344 -5.425781 C 6.527344 -4.667969 6.292969 -4.085938 5.816406 -3.675781 C 5.34375 -3.265625 4.664062 -3.058594 3.78125 -3.058594 Z M 1.9375 -3.902344 L 3.789062 -3.902344 C 4.339844 -3.902344 4.765625 -4.03125 5.058594 -4.292969 C 5.351562 -4.550781 5.496094 -4.925781 5.496094 -5.417969 C 5.496094 -5.882812 5.351562 -6.253906 5.058594 -6.535156 C 4.765625 -6.8125 4.359375 -6.957031 3.847656 -6.96875 L 1.9375 -6.96875 Z M 1.9375 -3.902344"/></g></g></g><g fill-opacity="1" fill="#374f59"><g transform="translate(173.036997, 216.894185)"><g><path d="M 0.835938 -8.246094 L 1.832031 -8.246094 L 1.832031 0 L 0.835938 0 Z M 0.835938 -8.246094"/></g></g></g><g fill-opacity="1" fill="#374f59"><g transform="translate(175.704535, 216.894185)"><g><path d="M 4.335938 0 C 4.28125 -0.113281 4.234375 -0.320312 4.199219 -0.613281 C 3.738281 -0.132812 3.183594 0.105469 2.542969 0.105469 C 1.972656 0.105469 1.503906 -0.0546875 1.136719 -0.378906 C 0.769531 -0.703125 0.585938 -1.113281 0.585938 -1.609375 C 0.585938 -2.214844 0.816406 -2.683594 1.273438 -3.019531 C 1.734375 -3.355469 2.382812 -3.523438 3.214844 -3.523438 L 4.183594 -3.523438 L 4.183594 -3.976562 C 4.183594 -4.324219 4.078125 -4.601562 3.871094 -4.808594 C 3.664062 -5.011719 3.355469 -5.117188 2.953125 -5.117188 C 2.597656 -5.117188 2.300781 -5.027344 2.0625 -4.847656 C 1.820312 -4.667969 1.703125 -4.453125 1.703125 -4.199219 L 0.703125 -4.199219 C 0.703125 -4.488281 0.804688 -4.769531 1.011719 -5.039062 C 1.21875 -5.308594 1.496094 -5.523438 1.847656 -5.679688 C 2.203125 -5.835938 2.589844 -5.917969 3.011719 -5.917969 C 3.679688 -5.917969 4.207031 -5.75 4.585938 -5.414062 C 4.964844 -5.078125 5.160156 -4.617188 5.175781 -4.03125 L 5.175781 -1.359375 C 5.175781 -0.824219 5.242188 -0.402344 5.378906 -0.0859375 L 5.378906 0 Z M 2.691406 -0.757812 C 3 -0.757812 3.296875 -0.835938 3.574219 -1 C 3.855469 -1.160156 4.058594 -1.367188 4.183594 -1.625 L 4.183594 -2.820312 L 3.402344 -2.820312 C 2.1875 -2.820312 1.578125 -2.460938 1.578125 -1.75 C 1.578125 -1.4375 1.683594 -1.195312 1.890625 -1.019531 C 2.097656 -0.84375 2.363281 -0.757812 2.691406 -0.757812 Z M 2.691406 -0.757812"/></g></g></g><g fill-opacity="1" fill="#374f59"><g transform="translate(181.683683, 216.894185)"><g><path d="M 1.691406 -5.808594 L 1.722656 -5.078125 C 2.167969 -5.636719 2.746094 -5.917969 3.460938 -5.917969 C 4.691406 -5.917969 5.308594 -5.222656 5.320312 -3.839844 L 5.320312 0 L 4.328125 0 L 4.328125 -3.84375 C 4.324219 -4.261719 4.226562 -4.574219 4.039062 -4.773438 C 3.851562 -4.972656 3.558594 -5.074219 3.164062 -5.074219 C 2.839844 -5.074219 2.558594 -4.988281 2.3125 -4.816406 C 2.070312 -4.644531 1.878906 -4.417969 1.746094 -4.140625 L 1.746094 0 L 0.75 0 L 0.75 -5.808594 Z M 1.691406 -5.808594"/></g></g></g><g fill-opacity="1" fill="#374f59"><g transform="translate(187.748708, 216.894185)"><g><path d="M 0.71875 1.558594 L 0.15625 1.171875 C 0.492188 0.703125 0.667969 0.21875 0.683594 -0.277344 L 0.683594 -1.175781 L 1.652344 -1.175781 L 1.652344 -0.398438 C 1.652344 -0.0351562 1.566406 0.324219 1.386719 0.6875 C 1.210938 1.046875 0.988281 1.339844 0.71875 1.558594 Z M 0.71875 1.558594"/></g></g></g><g fill-opacity="1" fill="#374f59"><g transform="translate(189.906354, 216.894185)"><g/></g></g><g fill-opacity="1" fill="#374f59"><g transform="translate(192.627565, 216.894185)"><g><path d="M 3.773438 -3.164062 L 1.9375 -3.164062 L 1.9375 0 L 0.902344 0 L 0.902344 -7.816406 L 3.488281 -7.816406 C 4.371094 -7.816406 5.046875 -7.617188 5.523438 -7.214844 C 5.996094 -6.816406 6.234375 -6.230469 6.234375 -5.464844 C 6.234375 -4.980469 6.101562 -4.554688 5.839844 -4.191406 C 5.574219 -3.832031 5.210938 -3.5625 4.742188 -3.382812 L 6.578125 -0.0625 L 6.578125 0 L 5.46875 0 Z M 1.9375 -4.003906 L 3.523438 -4.003906 C 4.035156 -4.003906 4.441406 -4.136719 4.742188 -4.402344 C 5.046875 -4.667969 5.195312 -5.019531 5.195312 -5.464844 C 5.195312 -5.949219 5.054688 -6.320312 4.765625 -6.578125 C 4.476562 -6.835938 4.058594 -6.964844 3.515625 -6.96875 L 1.9375 -6.96875 Z M 1.9375 -4.003906"/></g></g></g><g fill-opacity="1" fill="#374f59"><g transform="translate(199.395703, 216.894185)"><g><path d="M 3.164062 0.105469 C 2.375 0.105469 1.734375 -0.152344 1.238281 -0.667969 C 0.746094 -1.1875 0.5 -1.878906 0.5 -2.742188 L 0.5 -2.925781 C 0.5 -3.503906 0.609375 -4.015625 0.828125 -4.46875 C 1.050781 -4.921875 1.355469 -5.277344 1.753906 -5.53125 C 2.148438 -5.789062 2.578125 -5.917969 3.039062 -5.917969 C 3.792969 -5.917969 4.378906 -5.667969 4.800781 -5.171875 C 5.21875 -4.671875 5.425781 -3.960938 5.425781 -3.035156 L 5.425781 -2.621094 L 1.492188 -2.621094 C 1.507812 -2.046875 1.675781 -1.585938 1.996094 -1.230469 C 2.316406 -0.878906 2.722656 -0.703125 3.214844 -0.703125 C 3.566406 -0.703125 3.863281 -0.773438 4.105469 -0.917969 C 4.351562 -1.0625 4.5625 -1.25 4.746094 -1.488281 L 5.351562 -1.015625 C 4.867188 -0.265625 4.136719 0.105469 3.164062 0.105469 Z M 3.039062 -5.101562 C 2.636719 -5.101562 2.300781 -4.953125 2.03125 -4.664062 C 1.757812 -4.371094 1.589844 -3.960938 1.523438 -3.4375 L 4.433594 -3.4375 L 4.433594 -3.511719 C 4.40625 -4.015625 4.269531 -4.40625 4.027344 -4.683594 C 3.78125 -4.960938 3.453125 -5.101562 3.039062 -5.101562 Z M 3.039062 -5.101562"/></g></g></g><g fill-opacity="1" fill="#374f59"><g transform="translate(205.2192, 216.894185)"><g><path d="M 1.6875 -5.808594 L 1.710938 -5.164062 C 2.136719 -5.664062 2.714844 -5.917969 3.4375 -5.917969 C 4.25 -5.917969 4.800781 -5.605469 5.09375 -4.980469 C 5.289062 -5.261719 5.539062 -5.488281 5.847656 -5.660156 C 6.160156 -5.832031 6.523438 -5.917969 6.945312 -5.917969 C 8.222656 -5.917969 8.867188 -5.242188 8.890625 -3.890625 L 8.890625 0 L 7.898438 0 L 7.898438 -3.832031 C 7.898438 -4.25 7.800781 -4.558594 7.613281 -4.765625 C 7.421875 -4.96875 7.105469 -5.074219 6.65625 -5.074219 C 6.289062 -5.074219 5.984375 -4.964844 5.738281 -4.742188 C 5.496094 -4.523438 5.355469 -4.226562 5.316406 -3.855469 L 5.316406 0 L 4.316406 0 L 4.316406 -3.804688 C 4.316406 -4.652344 3.902344 -5.074219 3.078125 -5.074219 C 2.425781 -5.074219 1.980469 -4.796875 1.738281 -4.242188 L 1.738281 0 L 0.746094 0 L 0.746094 -5.808594 Z M 1.6875 -5.808594"/></g></g></g><g fill-opacity="1" fill="#374f59"><g transform="translate(214.853466, 216.894185)"><g><path d="M 3.164062 0.105469 C 2.375 0.105469 1.734375 -0.152344 1.238281 -0.667969 C 0.746094 -1.1875 0.5 -1.878906 0.5 -2.742188 L 0.5 -2.925781 C 0.5 -3.503906 0.609375 -4.015625 0.828125 -4.46875 C 1.050781 -4.921875 1.355469 -5.277344 1.753906 -5.53125 C 2.148438 -5.789062 2.578125 -5.917969 3.039062 -5.917969 C 3.792969 -5.917969 4.378906 -5.667969 4.800781 -5.171875 C 5.21875 -4.671875 5.425781 -3.960938 5.425781 -3.035156 L 5.425781 -2.621094 L 1.492188 -2.621094 C 1.507812 -2.046875 1.675781 -1.585938 1.996094 -1.230469 C 2.316406 -0.878906 2.722656 -0.703125 3.214844 -0.703125 C 3.566406 -0.703125 3.863281 -0.773438 4.105469 -0.917969 C 4.351562 -1.0625 4.5625 -1.25 4.746094 -1.488281 L 5.351562 -1.015625 C 4.867188 -0.265625 4.136719 0.105469 3.164062 0.105469 Z M 3.039062 -5.101562 C 2.636719 -5.101562 2.300781 -4.953125 2.03125 -4.664062 C 1.757812 -4.371094 1.589844 -3.960938 1.523438 -3.4375 L 4.433594 -3.4375 L 4.433594 -3.511719 C 4.40625 -4.015625 4.269531 -4.40625 4.027344 -4.683594 C 3.78125 -4.960938 3.453125 -5.101562 3.039062 -5.101562 Z M 3.039062 -5.101562"/></g></g></g><g fill-opacity="1" fill="#374f59"><g transform="translate(220.676963, 216.894185)"><g><path d="M 1.6875 -5.808594 L 1.710938 -5.164062 C 2.136719 -5.664062 2.714844 -5.917969 3.4375 -5.917969 C 4.25 -5.917969 4.800781 -5.605469 5.09375 -4.980469 C 5.289062 -5.261719 5.539062 -5.488281 5.847656 -5.660156 C 6.160156 -5.832031 6.523438 -5.917969 6.945312 -5.917969 C 8.222656 -5.917969 8.867188 -5.242188 8.890625 -3.890625 L 8.890625 0 L 7.898438 0 L 7.898438 -3.832031 C 7.898438 -4.25 7.800781 -4.558594 7.613281 -4.765625 C 7.421875 -4.96875 7.105469 -5.074219 6.65625 -5.074219 C 6.289062 -5.074219 5.984375 -4.964844 5.738281 -4.742188 C 5.496094 -4.523438 5.355469 -4.226562 5.316406 -3.855469 L 5.316406 0 L 4.316406 0 L 4.316406 -3.804688 C 4.316406 -4.652344 3.902344 -5.074219 3.078125 -5.074219 C 2.425781 -5.074219 1.980469 -4.796875 1.738281 -4.242188 L 1.738281 0 L 0.746094 0 L 0.746094 -5.808594 Z M 1.6875 -5.808594"/></g></g></g><g fill-opacity="1" fill="#374f59"><g transform="translate(230.311228, 216.894185)"><g><path d="M 5.667969 -2.839844 C 5.667969 -1.953125 5.464844 -1.238281 5.058594 -0.699219 C 4.648438 -0.160156 4.101562 0.105469 3.414062 0.105469 C 2.679688 0.105469 2.113281 -0.152344 1.710938 -0.671875 L 1.664062 0 L 0.75 0 L 0.75 -8.246094 L 1.746094 -8.246094 L 1.746094 -5.171875 C 2.144531 -5.667969 2.699219 -5.917969 3.402344 -5.917969 C 4.109375 -5.917969 4.664062 -5.648438 5.066406 -5.117188 C 5.46875 -4.582031 5.667969 -3.851562 5.667969 -2.925781 Z M 4.675781 -2.953125 C 4.675781 -3.628906 4.546875 -4.152344 4.285156 -4.519531 C 4.023438 -4.890625 3.648438 -5.074219 3.15625 -5.074219 C 2.5 -5.074219 2.03125 -4.769531 1.746094 -4.160156 L 1.746094 -1.648438 C 2.050781 -1.039062 2.523438 -0.734375 3.167969 -0.734375 C 3.644531 -0.734375 4.015625 -0.917969 4.277344 -1.289062 C 4.542969 -1.65625 4.675781 -2.210938 4.675781 -2.953125 Z M 4.675781 -2.953125"/></g></g></g><g fill-opacity="1" fill="#374f59"><g transform="translate(236.478232, 216.894185)"><g><path d="M 3.164062 0.105469 C 2.375 0.105469 1.734375 -0.152344 1.238281 -0.667969 C 0.746094 -1.1875 0.5 -1.878906 0.5 -2.742188 L 0.5 -2.925781 C 0.5 -3.503906 0.609375 -4.015625 0.828125 -4.46875 C 1.050781 -4.921875 1.355469 -5.277344 1.753906 -5.53125 C 2.148438 -5.789062 2.578125 -5.917969 3.039062 -5.917969 C 3.792969 -5.917969 4.378906 -5.667969 4.800781 -5.171875 C 5.21875 -4.671875 5.425781 -3.960938 5.425781 -3.035156 L 5.425781 -2.621094 L 1.492188 -2.621094 C 1.507812 -2.046875 1.675781 -1.585938 1.996094 -1.230469 C 2.316406 -0.878906 2.722656 -0.703125 3.214844 -0.703125 C 3.566406 -0.703125 3.863281 -0.773438 4.105469 -0.917969 C 4.351562 -1.0625 4.5625 -1.25 4.746094 -1.488281 L 5.351562 -1.015625 C 4.867188 -0.265625 4.136719 0.105469 3.164062 0.105469 Z M 3.039062 -5.101562 C 2.636719 -5.101562 2.300781 -4.953125 2.03125 -4.664062 C 1.757812 -4.371094 1.589844 -3.960938 1.523438 -3.4375 L 4.433594 -3.4375 L 4.433594 -3.511719 C 4.40625 -4.015625 4.269531 -4.40625 4.027344 -4.683594 C 3.78125 -4.960938 3.453125 -5.101562 3.039062 -5.101562 Z M 3.039062 -5.101562"/></g></g></g><g fill-opacity="1" fill="#374f59"><g transform="translate(242.301729, 216.894185)"><g><path d="M 3.558594 -4.917969 C 3.410156 -4.941406 3.246094 -4.957031 3.070312 -4.957031 C 2.417969 -4.957031 1.976562 -4.679688 1.746094 -4.125 L 1.746094 0 L 0.75 0 L 0.75 -5.808594 L 1.71875 -5.808594 L 1.734375 -5.136719 C 2.058594 -5.65625 2.519531 -5.917969 3.121094 -5.917969 C 3.3125 -5.917969 3.460938 -5.890625 3.558594 -5.839844 Z M 3.558594 -4.917969"/></g></g></g><g fill-opacity="1" fill="#374f59"><g transform="translate(49.221611, 194.547278)"><g><path d="M 38.53125 -53.570312 C 46.574219 -53.570312 52.632812 -52.03125 56.707031 -48.945312 C 60.785156 -45.863281 62.820312 -41.34375 62.820312 -35.390625 C 62.820312 -32.441406 62.285156 -29.039062 61.214844 -25.175781 C 59.441406 -18.957031 57.058594 -14.023438 54.054688 -10.375 C 51.050781 -6.730469 47.097656 -4.074219 42.191406 -2.414062 C 37.28125 -0.75 30.996094 0.0546875 23.328125 0 L 1.449219 -0.0820312 C 0.320312 -0.0820312 -0.550781 -0.269531 -1.167969 -0.644531 C -1.78125 -1.019531 -2.089844 -1.527344 -2.089844 -2.171875 C -2.089844 -2.492188 -2.011719 -2.84375 -1.851562 -3.21875 C -1.6875 -3.699219 -1.460938 -4.046875 -1.167969 -4.261719 C -0.871094 -4.476562 -0.429688 -4.773438 0.160156 -5.148438 C 1.019531 -5.628906 1.703125 -6.167969 2.210938 -6.757812 C 2.722656 -7.347656 3.164062 -8.285156 3.539062 -9.570312 L 13.351562 -44.160156 C 13.566406 -44.855469 13.675781 -45.527344 13.675781 -46.171875 C 13.675781 -46.761719 13.582031 -47.257812 13.394531 -47.660156 C 13.207031 -48.0625 12.949219 -48.53125 12.628906 -49.066406 C 12.144531 -49.765625 11.90625 -50.328125 11.90625 -50.757812 C 11.90625 -50.917969 11.957031 -51.210938 12.066406 -51.640625 C 12.28125 -52.339844 12.75 -52.835938 13.472656 -53.128906 C 14.195312 -53.425781 15.308594 -53.570312 16.8125 -53.570312 Z M 40.621094 -26.945312 C 42.015625 -31.988281 42.710938 -35.957031 42.710938 -38.851562 C 42.710938 -41.695312 42.121094 -43.652344 40.941406 -44.722656 C 39.761719 -45.796875 38.074219 -46.332031 35.875 -46.332031 L 34.105469 -46.332031 L 23.246094 -7.238281 L 25.175781 -7.238281 C 27.644531 -7.238281 29.722656 -7.761719 31.410156 -8.808594 C 33.101562 -9.855469 34.667969 -11.785156 36.117188 -14.597656 C 37.5625 -17.414062 39.066406 -21.53125 40.621094 -26.945312 Z M 40.621094 -26.945312"/></g></g></g><g fill-opacity="1" fill="#374f59"><g transform="translate(111.319343, 194.547278)"><g><path d="M 21.15625 -42.550781 C 24.265625 -42.550781 26.542969 -41.960938 27.992188 -40.78125 C 29.441406 -39.601562 30.164062 -37.992188 30.164062 -35.957031 C 30.164062 -34.722656 29.976562 -33.542969 29.601562 -32.417969 L 22.199219 -8.367188 C 22.039062 -7.722656 21.960938 -7.160156 21.960938 -6.675781 C 21.960938 -5.980469 22.09375 -5.429688 22.363281 -5.027344 C 22.628906 -4.625 23.003906 -4.238281 23.488281 -3.859375 C 23.863281 -3.484375 24.132812 -3.175781 24.292969 -2.9375 C 24.453125 -2.695312 24.480469 -2.386719 24.371094 -2.011719 C 24.105469 -1.3125 23.566406 -0.804688 22.765625 -0.484375 C 21.960938 -0.160156 20.726562 0 19.0625 0 L 0.722656 0 C -0.671875 0 -1.6875 -0.226562 -2.332031 -0.683594 C -2.976562 -1.140625 -3.191406 -1.742188 -2.976562 -2.492188 C -2.761719 -3.136719 -2.199219 -3.699219 -1.285156 -4.183594 C -0.484375 -4.613281 0.1875 -5.121094 0.722656 -5.710938 C 1.261719 -6.300781 1.714844 -7.238281 2.089844 -8.527344 L 9.089844 -31.773438 C 9.25 -32.253906 9.332031 -32.65625 9.332031 -32.980469 C 9.332031 -33.570312 9.195312 -34.039062 8.929688 -34.386719 C 8.660156 -34.734375 8.257812 -35.097656 7.722656 -35.472656 C 7.1875 -35.902344 6.808594 -36.277344 6.597656 -36.597656 C 6.382812 -36.921875 6.355469 -37.351562 6.515625 -37.886719 C 6.835938 -39.121094 8.527344 -40.207031 11.582031 -41.144531 C 14.640625 -42.082031 17.832031 -42.550781 21.15625 -42.550781 Z M 26.542969 -60.328125 C 28.636719 -60.328125 30.378906 -59.644531 31.773438 -58.277344 C 33.167969 -56.910156 33.863281 -55.234375 33.863281 -53.25 C 33.863281 -51.855469 33.503906 -50.488281 32.777344 -49.148438 C 32.054688 -47.808594 31.035156 -46.722656 29.722656 -45.890625 C 28.40625 -45.058594 26.945312 -44.644531 25.335938 -44.644531 C 23.300781 -44.644531 21.597656 -45.328125 20.230469 -46.695312 C 18.863281 -48.0625 18.152344 -49.765625 18.097656 -51.800781 C 18.097656 -53.140625 18.445312 -54.46875 19.144531 -55.785156 C 19.839844 -57.097656 20.832031 -58.183594 22.121094 -59.042969 C 23.40625 -59.898438 24.882812 -60.328125 26.542969 -60.328125 Z M 26.542969 -60.328125"/></g></g></g><g fill-opacity="1" fill="#374f59"><g transform="translate(140.759462, 194.547278)"><g><path d="M 43.355469 -53.570312 C 49.039062 -53.570312 53.425781 -52.339844 56.507812 -49.871094 C 59.589844 -47.40625 61.132812 -44.132812 61.132812 -40.058594 C 61.132812 -38.449219 60.890625 -36.761719 60.410156 -34.992188 C 58.90625 -29.628906 55.945312 -25.660156 51.519531 -23.085938 C 47.097656 -20.511719 41.503906 -19.222656 34.75 -19.222656 L 26.464844 -19.222656 L 23.730469 -9.492188 C 23.621094 -9.167969 23.566406 -8.742188 23.566406 -8.203125 C 23.566406 -7.453125 23.742188 -6.835938 24.089844 -6.355469 C 24.441406 -5.871094 24.960938 -5.308594 25.660156 -4.664062 C 26.25 -4.128906 26.652344 -3.726562 26.867188 -3.457031 C 27.082031 -3.191406 27.1875 -2.867188 27.1875 -2.492188 C 27.1875 -1.582031 26.757812 -0.9375 25.902344 -0.5625 C 25.042969 -0.1875 23.78125 0 22.121094 0 L 1.929688 0 C 0.535156 0 -0.507812 -0.253906 -1.207031 -0.765625 C -1.902344 -1.273438 -2.144531 -1.984375 -1.929688 -2.894531 C -1.824219 -3.378906 -1.621094 -3.765625 -1.328125 -4.0625 C -1.03125 -4.355469 -0.589844 -4.691406 0 -5.066406 C 0.910156 -5.605469 1.636719 -6.167969 2.171875 -6.757812 C 2.707031 -7.347656 3.136719 -8.257812 3.457031 -9.492188 L 13.273438 -44.160156 C 13.488281 -44.855469 13.59375 -45.527344 13.59375 -46.171875 C 13.59375 -46.761719 13.5 -47.257812 13.3125 -47.660156 C 13.125 -48.0625 12.871094 -48.53125 12.546875 -49.066406 C 12.066406 -49.765625 11.824219 -50.328125 11.824219 -50.757812 C 11.824219 -50.917969 11.878906 -51.210938 11.984375 -51.640625 C 12.199219 -52.339844 12.667969 -52.835938 13.394531 -53.128906 C 14.117188 -53.425781 15.230469 -53.570312 16.730469 -53.570312 Z M 41.265625 -36.4375 C 41.855469 -38.421875 42.148438 -40.164062 42.148438 -41.667969 C 42.148438 -44.777344 40.703125 -46.332031 37.804688 -46.332031 L 34.1875 -46.332031 L 28.476562 -26.464844 L 32.015625 -26.464844 C 34.265625 -26.464844 36.101562 -27.175781 37.523438 -28.59375 C 38.945312 -30.015625 40.191406 -32.628906 41.265625 -36.4375 Z M 41.265625 -36.4375"/></g></g></g><g fill-opacity="1" fill="#374f59"><g transform="translate(197.307016, 194.547278)"><g><path d="M 21.15625 -42.550781 C 24.265625 -42.550781 26.542969 -41.960938 27.992188 -40.78125 C 29.441406 -39.601562 30.164062 -37.992188 30.164062 -35.957031 C 30.164062 -34.722656 29.976562 -33.542969 29.601562 -32.417969 L 22.199219 -8.367188 C 22.039062 -7.722656 21.960938 -7.160156 21.960938 -6.675781 C 21.960938 -5.980469 22.09375 -5.429688 22.363281 -5.027344 C 22.628906 -4.625 23.003906 -4.238281 23.488281 -3.859375 C 23.863281 -3.484375 24.132812 -3.175781 24.292969 -2.9375 C 24.453125 -2.695312 24.480469 -2.386719 24.371094 -2.011719 C 24.105469 -1.3125 23.566406 -0.804688 22.765625 -0.484375 C 21.960938 -0.160156 20.726562 0 19.0625 0 L 0.722656 0 C -0.671875 0 -1.6875 -0.226562 -2.332031 -0.683594 C -2.976562 -1.140625 -3.191406 -1.742188 -2.976562 -2.492188 C -2.761719 -3.136719 -2.199219 -3.699219 -1.285156 -4.183594 C -0.484375 -4.613281 0.1875 -5.121094 0.722656 -5.710938 C 1.261719 -6.300781 1.714844 -7.238281 2.089844 -8.527344 L 9.089844 -31.773438 C 9.25 -32.253906 9.332031 -32.65625 9.332031 -32.980469 C 9.332031 -33.570312 9.195312 -34.039062 8.929688 -34.386719 C 8.660156 -34.734375 8.257812 -35.097656 7.722656 -35.472656 C 7.1875 -35.902344 6.808594 -36.277344 6.597656 -36.597656 C 6.382812 -36.921875 6.355469 -37.351562 6.515625 -37.886719 C 6.835938 -39.121094 8.527344 -40.207031 11.582031 -41.144531 C 14.640625 -42.082031 17.832031 -42.550781 21.15625 -42.550781 Z M 26.542969 -60.328125 C 28.636719 -60.328125 30.378906 -59.644531 31.773438 -58.277344 C 33.167969 -56.910156 33.863281 -55.234375 33.863281 -53.25 C 33.863281 -51.855469 33.503906 -50.488281 32.777344 -49.148438 C 32.054688 -47.808594 31.035156 -46.722656 29.722656 -45.890625 C 28.40625 -45.058594 26.945312 -44.644531 25.335938 -44.644531 C 23.300781 -44.644531 21.597656 -45.328125 20.230469 -46.695312 C 18.863281 -48.0625 18.152344 -49.765625 18.097656 -51.800781 C 18.097656 -53.140625 18.445312 -54.46875 19.144531 -55.785156 C 19.839844 -57.097656 20.832031 -58.183594 22.121094 -59.042969 C 23.40625 -59.898438 24.882812 -60.328125 26.542969 -60.328125 Z M 26.542969 -60.328125"/></g></g></g><g fill-opacity="1" fill="#374f59"><g transform="translate(226.747135, 194.547278)"><g><path d="M 61.453125 -37.242188 C 60.597656 -34.132812 58.988281 -31.707031 56.628906 -29.964844 C 54.269531 -28.21875 51.292969 -27.132812 47.699219 -26.707031 C 50.273438 -26.492188 52.203125 -25.738281 53.492188 -24.453125 C 54.777344 -23.164062 55.421875 -21.476562 55.421875 -19.386719 C 55.421875 -18.582031 55.289062 -17.589844 55.019531 -16.410156 L 54.132812 -12.46875 C 54.027344 -11.929688 53.972656 -11.554688 53.972656 -11.339844 C 53.972656 -10.644531 54.132812 -10.121094 54.457031 -9.773438 C 54.777344 -9.425781 55.234375 -9.25 55.824219 -9.25 C 56.949219 -9.25 57.765625 -9.089844 58.277344 -8.769531 C 58.785156 -8.445312 58.960938 -7.855469 58.800781 -7 C 58.585938 -5.765625 57.941406 -4.558594 56.871094 -3.378906 C 55.796875 -2.199219 54.28125 -1.21875 52.324219 -0.441406 C 50.367188 0.335938 47.996094 0.722656 45.207031 0.722656 C 41.667969 0.722656 38.851562 -0.0664062 36.761719 -1.648438 C 34.667969 -3.230469 33.621094 -5.496094 33.621094 -8.445312 C 33.621094 -9.570312 33.785156 -10.777344 34.105469 -12.066406 L 35.390625 -17.214844 C 35.605469 -17.910156 35.714844 -18.632812 35.714844 -19.386719 C 35.714844 -20.617188 35.296875 -21.503906 34.46875 -22.039062 C 33.636719 -22.574219 32.308594 -22.84375 30.484375 -22.84375 L 27.429688 -22.84375 L 23.730469 -9.492188 C 23.621094 -9.167969 23.566406 -8.769531 23.566406 -8.285156 C 23.566406 -7.535156 23.757812 -6.890625 24.132812 -6.355469 C 24.507812 -5.816406 25.015625 -5.253906 25.660156 -4.664062 C 26.140625 -4.289062 26.515625 -3.929688 26.785156 -3.578125 C 27.054688 -3.230469 27.1875 -2.867188 27.1875 -2.492188 C 27.1875 -1.582031 26.757812 -0.9375 25.902344 -0.5625 C 25.042969 -0.1875 23.78125 0 22.121094 0 L 1.929688 0 C 0.535156 0 -0.507812 -0.253906 -1.207031 -0.765625 C -1.902344 -1.273438 -2.144531 -1.984375 -1.929688 -2.894531 C -1.824219 -3.378906 -1.621094 -3.765625 -1.328125 -4.0625 C -1.03125 -4.355469 -0.589844 -4.691406 0 -5.066406 C 0.910156 -5.605469 1.636719 -6.167969 2.171875 -6.757812 C 2.707031 -7.347656 3.136719 -8.257812 3.457031 -9.492188 L 13.273438 -44.160156 C 13.488281 -44.855469 13.59375 -45.527344 13.59375 -46.171875 C 13.59375 -46.761719 13.5 -47.257812 13.3125 -47.660156 C 13.125 -48.0625 12.871094 -48.53125 12.546875 -49.066406 C 12.066406 -49.765625 11.824219 -50.328125 11.824219 -50.757812 C 11.824219 -50.917969 11.878906 -51.210938 11.984375 -51.640625 C 12.199219 -52.339844 12.667969 -52.835938 13.394531 -53.128906 C 14.117188 -53.425781 15.230469 -53.570312 16.730469 -53.570312 L 43.675781 -53.570312 C 47.378906 -53.570312 50.609375 -53.007812 53.371094 -51.882812 C 56.132812 -50.757812 58.25 -49.214844 59.726562 -47.257812 C 61.199219 -45.300781 61.9375 -43.085938 61.9375 -40.621094 C 61.9375 -39.496094 61.777344 -38.367188 61.453125 -37.242188 Z M 40.863281 -38.046875 C 41.128906 -39.28125 41.265625 -40.21875 41.265625 -40.863281 C 41.265625 -43.703125 39.710938 -45.125 36.597656 -45.125 L 33.21875 -45.125 L 29.679688 -30.886719 L 33.058594 -30.886719 C 35.152344 -30.886719 36.800781 -31.398438 38.007812 -32.417969 C 39.214844 -33.433594 40.164062 -35.3125 40.863281 -38.046875 Z M 40.863281 -38.046875"/></g></g></g><g fill-opacity="1" fill="#374f59"><g transform="translate(287.799186, 194.547278)"><g><path d="M 21.15625 -42.550781 C 24.265625 -42.550781 26.542969 -41.960938 27.992188 -40.78125 C 29.441406 -39.601562 30.164062 -37.992188 30.164062 -35.957031 C 30.164062 -34.722656 29.976562 -33.542969 29.601562 -32.417969 L 22.199219 -8.367188 C 22.039062 -7.722656 21.960938 -7.160156 21.960938 -6.675781 C 21.960938 -5.980469 22.09375 -5.429688 22.363281 -5.027344 C 22.628906 -4.625 23.003906 -4.238281 23.488281 -3.859375 C 23.863281 -3.484375 24.132812 -3.175781 24.292969 -2.9375 C 24.453125 -2.695312 24.480469 -2.386719 24.371094 -2.011719 C 24.105469 -1.3125 23.566406 -0.804688 22.765625 -0.484375 C 21.960938 -0.160156 20.726562 0 19.0625 0 L 0.722656 0 C -0.671875 0 -1.6875 -0.226562 -2.332031 -0.683594 C -2.976562 -1.140625 -3.191406 -1.742188 -2.976562 -2.492188 C -2.761719 -3.136719 -2.199219 -3.699219 -1.285156 -4.183594 C -0.484375 -4.613281 0.1875 -5.121094 0.722656 -5.710938 C 1.261719 -6.300781 1.714844 -7.238281 2.089844 -8.527344 L 9.089844 -31.773438 C 9.25 -32.253906 9.332031 -32.65625 9.332031 -32.980469 C 9.332031 -33.570312 9.195312 -34.039062 8.929688 -34.386719 C 8.660156 -34.734375 8.257812 -35.097656 7.722656 -35.472656 C 7.1875 -35.902344 6.808594 -36.277344 6.597656 -36.597656 C 6.382812 -36.921875 6.355469 -37.351562 6.515625 -37.886719 C 6.835938 -39.121094 8.527344 -40.207031 11.582031 -41.144531 C 14.640625 -42.082031 17.832031 -42.550781 21.15625 -42.550781 Z M 26.542969 -60.328125 C 28.636719 -60.328125 30.378906 -59.644531 31.773438 -58.277344 C 33.167969 -56.910156 33.863281 -55.234375 33.863281 -53.25 C 33.863281 -51.855469 33.503906 -50.488281 32.777344 -49.148438 C 32.054688 -47.808594 31.035156 -46.722656 29.722656 -45.890625 C 28.40625 -45.058594 26.945312 -44.644531 25.335938 -44.644531 C 23.300781 -44.644531 21.597656 -45.328125 20.230469 -46.695312 C 18.863281 -48.0625 18.152344 -49.765625 18.097656 -51.800781 C 18.097656 -53.140625 18.445312 -54.46875 19.144531 -55.785156 C 19.839844 -57.097656 20.832031 -58.183594 22.121094 -59.042969 C 23.40625 -59.898438 24.882812 -60.328125 26.542969 -60.328125 Z M 26.542969 -60.328125"/></g></g></g><g clip-path="url(#8800aa6193)"><path fill-rule="nonzero" fill-opacity="1" d="M 275.109375 99.53125 L 274.789062 99.503906 L 273.820312 99.421875 L 274.429688 100.40625 L 275.039062 101.394531 L 275.398438 100.488281 L 275.519531 100.195312 C 275.621094 99.9375 275.386719 99.554688 275.109375 99.53125 Z M 275.109375 99.53125" fill="#374f59"/></g><g clip-path="url(#4f5162bb8f)"><path fill-rule="nonzero" fill-opacity="1" d="M 275.039062 101.390625 L 273.820312 99.421875 L 266.226562 104.113281 L 264.78125 103.238281 L 264.800781 103.226562 C 265.023438 103.089844 265.09375 102.796875 264.957031 102.574219 C 264.820312 102.351562 264.527344 102.285156 264.304688 102.421875 L 263.871094 102.6875 L 260.898438 100.890625 C 261.09375 100.75 261.152344 100.472656 261.023438 100.261719 C 260.886719 100.039062 260.59375 99.96875 260.371094 100.105469 L 259.980469 100.347656 L 256.527344 98.3125 C 256.445312 98.261719 256.34375 98.242188 256.238281 98.257812 C 255.941406 98.296875 255.789062 98.582031 255.964844 98.773438 L 261.867188 105.15625 L 262.894531 106.171875 L 255.410156 110.796875 L 254.734375 110.664062 L 252.941406 110.3125 C 252.808594 110.285156 252.699219 110.453125 252.800781 110.535156 L 255.003906 112.320312 C 255.023438 112.335938 255.035156 112.355469 255.039062 112.378906 L 255.691406 115.226562 C 255.722656 115.351562 255.921875 115.332031 255.957031 115.199219 L 256.445312 113.429688 L 256.625 112.769531 L 264.070312 108.167969 L 264.519531 109.535156 L 267.589844 117.667969 C 267.679688 117.910156 268.003906 117.902344 268.175781 117.652344 C 268.230469 117.566406 268.261719 117.46875 268.253906 117.375 L 267.976562 113.371094 L 268.367188 113.132812 C 268.589844 112.996094 268.65625 112.703125 268.519531 112.480469 C 268.390625 112.269531 268.117188 112.195312 267.898438 112.308594 L 267.621094 108.847656 L 268.054688 108.578125 C 268.277344 108.441406 268.347656 108.148438 268.210938 107.929688 C 268.074219 107.707031 267.78125 107.636719 267.558594 107.773438 L 267.535156 107.789062 L 267.402344 106.109375 Z M 275.039062 101.390625" fill="#374f59"/></g><g clip-path="url(#a995ecc5fc)"><path fill-rule="nonzero" fill-opacity="1" d="M 128.328125 110.238281 C 126.832031 110.238281 125.617188 111.453125 125.617188 112.949219 C 125.617188 115.144531 128.375 118.207031 128.375 118.207031 C 128.375 118.207031 131.039062 115.160156 131.039062 112.949219 C 131.039062 111.453125 129.824219 110.238281 128.328125 110.238281 Z M 129.328125 113.949219 C 129.0625 114.214844 128.707031 114.363281 128.328125 114.363281 C 127.953125 114.363281 127.597656 114.214844 127.328125 113.949219 C 127.0625 113.683594 126.914062 113.328125 126.914062 112.949219 C 126.914062 112.570312 127.0625 112.214844 127.328125 111.949219 C 127.597656 111.679688 127.953125 111.535156 128.328125 111.535156 C 128.707031 111.535156 129.0625 111.679688 129.328125 111.949219 C 129.597656 112.214844 129.742188 112.570312 129.742188 112.949219 C 129.742188 113.328125 129.597656 113.683594 129.328125 113.949219 Z M 129.328125 113.949219" fill="#374f59"/></g><path fill-rule="nonzero" fill-opacity="1" d="M 169.757812 131.917969 L 169.722656 131.917969 L 169.707031 132.925781 L 169.734375 132.925781 C 169.898438 132.929688 170.066406 132.933594 170.230469 132.933594 C 170.839844 132.933594 171.46875 132.902344 172.097656 132.839844 L 172.027344 131.835938 C 171.261719 131.910156 170.488281 131.9375 169.757812 131.917969 Z M 169.757812 131.917969" fill="#374f59"/><path fill-rule="nonzero" fill-opacity="1" d="M 174.421875 122.050781 C 174.445312 122.125 174.472656 122.199219 174.5 122.277344 L 175.277344 121.886719 C 175.253906 121.8125 175.230469 121.742188 175.207031 121.675781 L 175.1875 121.621094 C 174.976562 120.988281 174.714844 120.203125 174.441406 119.292969 L 173.644531 119.636719 C 173.925781 120.5625 174.191406 121.355469 174.402344 121.992188 Z M 174.421875 122.050781" fill="#374f59"/><path fill-rule="nonzero" fill-opacity="1" d="M 173.210938 113.984375 L 172.378906 114.152344 C 172.503906 115.023438 172.683594 115.957031 172.914062 116.9375 L 173.726562 116.664062 C 173.503906 115.71875 173.332031 114.816406 173.210938 113.984375 Z M 173.210938 113.984375" fill="#374f59"/><path fill-rule="nonzero" fill-opacity="1" d="M 164.972656 132.359375 C 165.800781 132.515625 166.589844 132.640625 167.328125 132.734375 L 167.414062 131.730469 C 166.695312 131.640625 165.917969 131.515625 165.105469 131.363281 Z M 164.972656 132.359375" fill="#374f59"/><path fill-rule="nonzero" fill-opacity="1" d="M 175.648438 124.824219 C 176.082031 125.621094 176.574219 126.390625 177.109375 127.109375 L 177.742188 126.441406 C 177.234375 125.757812 176.769531 125.027344 176.359375 124.273438 Z M 175.648438 124.824219" fill="#374f59"/><path fill-rule="nonzero" fill-opacity="1" d="M 184.113281 109.769531 C 183.9375 109.402344 183.453125 108.433594 182.710938 107.398438 L 182.066406 108.054688 C 182.761719 109.023438 183.214844 109.925781 183.375 110.265625 Z M 184.113281 109.769531" fill="#374f59"/><path fill-rule="nonzero" fill-opacity="1" d="M 180.390625 129.285156 C 180.042969 128.988281 179.703125 128.675781 179.378906 128.347656 L 178.832031 129.117188 C 179.039062 129.328125 179.253906 129.53125 179.472656 129.730469 C 179.242188 129.835938 179.007812 129.941406 178.777344 130.039062 L 179.0625 130.988281 C 179.472656 130.8125 179.882812 130.625 180.289062 130.429688 C 180.453125 130.558594 180.617188 130.683594 180.78125 130.804688 L 181.222656 129.953125 C 181.238281 129.945312 181.253906 129.9375 181.273438 129.925781 L 180.925781 129.007812 C 180.75 129.101562 180.570312 129.195312 180.390625 129.285156 Z M 180.390625 129.285156" fill="#374f59"/><path fill-rule="nonzero" fill-opacity="1" d="M 180.914062 105.414062 C 180.167969 104.789062 179.402344 104.375 178.628906 104.1875 L 178.460938 105.175781 C 179.117188 105.335938 179.777344 105.695312 180.425781 106.238281 Z M 180.914062 105.414062" fill="#374f59"/><path fill-rule="nonzero" fill-opacity="1" d="M 174.316406 131.476562 L 174.464844 132.46875 C 175.234375 132.304688 176.015625 132.09375 176.792969 131.84375 L 176.570312 130.871094 C 175.816406 131.113281 175.058594 131.320312 174.316406 131.476562 Z M 174.316406 131.476562" fill="#374f59"/><path fill-rule="nonzero" fill-opacity="1" d="M 128.9375 119.117188 C 128.945312 119.121094 129.761719 119.511719 131.144531 120.148438 L 131.449219 119.207031 C 130.070312 118.574219 129.261719 118.183594 129.253906 118.179688 Z M 128.9375 119.117188" fill="#374f59"/><path fill-rule="nonzero" fill-opacity="1" d="M 137.777344 123.089844 C 138.515625 123.40625 139.265625 123.722656 139.996094 124.03125 L 140.277344 123.078125 C 139.546875 122.769531 138.800781 122.457031 138.0625 122.140625 Z M 137.777344 123.089844" fill="#374f59"/><path fill-rule="nonzero" fill-opacity="1" d="M 133.351562 121.148438 C 134.074219 121.472656 134.816406 121.800781 135.5625 122.128906 L 135.851562 121.179688 C 135.113281 120.855469 134.371094 120.527344 133.648438 120.203125 Z M 133.351562 121.148438" fill="#374f59"/><path fill-rule="nonzero" fill-opacity="1" d="M 182.914062 132.136719 C 183.636719 132.515625 184.398438 132.839844 185.175781 133.101562 L 185.40625 132.128906 C 184.664062 131.878906 183.9375 131.570312 183.25 131.210938 Z M 182.914062 132.136719" fill="#374f59"/><path fill-rule="nonzero" fill-opacity="1" d="M 174.863281 106.207031 C 175.359375 105.804688 175.859375 105.503906 176.355469 105.320312 L 176.097656 104.355469 C 175.523438 104.574219 174.949219 104.917969 174.386719 105.375 C 174.21875 105.511719 174.058594 105.660156 173.910156 105.820312 L 174.46875 106.574219 C 174.59375 106.445312 174.722656 106.320312 174.863281 106.207031 Z M 174.863281 106.207031" fill="#374f59"/><path fill-rule="nonzero" fill-opacity="1" d="M 160.324219 131.285156 C 161.125 131.5 161.902344 131.695312 162.640625 131.867188 L 162.800781 130.875 C 162.074219 130.707031 161.300781 130.511719 160.511719 130.300781 Z M 160.324219 131.285156" fill="#374f59"/><path fill-rule="nonzero" fill-opacity="1" d="M 192.371094 107.082031 C 191.625 106.734375 190.789062 106.523438 189.949219 106.476562 L 189.910156 107.480469 C 190.65625 107.527344 191.402344 107.714844 192.066406 108.023438 Z M 192.371094 107.082031" fill="#374f59"/><path fill-rule="nonzero" fill-opacity="1" d="M 155.742188 129.929688 C 156.519531 130.179688 157.289062 130.414062 158.027344 130.632812 L 158.230469 129.65625 C 157.5 129.4375 156.734375 129.203125 155.960938 128.953125 Z M 155.742188 129.929688" fill="#374f59"/><path fill-rule="nonzero" fill-opacity="1" d="M 142.222656 124.949219 C 142.976562 125.257812 143.726562 125.558594 144.457031 125.847656 L 144.726562 124.890625 C 143.996094 124.601562 143.25 124.300781 142.5 123.996094 Z M 142.222656 124.949219" fill="#374f59"/><path fill-rule="nonzero" fill-opacity="1" d="M 151.199219 128.390625 C 151.96875 128.664062 152.730469 128.929688 153.46875 129.179688 L 153.699219 128.210938 C 152.964844 127.960938 152.203125 127.695312 151.441406 127.425781 Z M 151.199219 128.390625" fill="#374f59"/><path fill-rule="nonzero" fill-opacity="1" d="M 146.699219 126.722656 C 147.457031 127.015625 148.210938 127.300781 148.945312 127.574219 L 149.195312 126.609375 C 148.464844 126.339844 147.710938 126.054688 146.957031 125.761719 Z M 146.699219 126.722656" fill="#374f59"/><path fill-rule="nonzero" fill-opacity="1" d="M 173.332031 108.683594 L 172.53125 108.363281 C 172.292969 109.210938 172.167969 110.191406 172.164062 111.277344 L 173.007812 111.285156 C 173.011719 110.304688 173.121094 109.429688 173.332031 108.683594 Z M 173.332031 108.683594" fill="#374f59"/><path fill-rule="nonzero" fill-opacity="1" d="M 233.292969 121.082031 L 233.527344 122.054688 C 234.289062 121.789062 235.046875 121.53125 235.789062 121.273438 L 235.554688 120.304688 C 234.8125 120.5625 234.054688 120.820312 233.292969 121.082031 Z M 233.292969 121.082031" fill="#374f59"/><path fill-rule="nonzero" fill-opacity="1" d="M 224.238281 124.136719 L 224.460938 125.109375 C 225.222656 124.855469 225.976562 124.605469 226.730469 124.351562 L 226.503906 123.382812 C 225.75 123.632812 224.992188 123.886719 224.238281 124.136719 Z M 224.238281 124.136719" fill="#374f59"/><path fill-rule="nonzero" fill-opacity="1" d="M 228.765625 122.621094 L 228.996094 123.59375 C 229.757812 123.335938 230.511719 123.078125 231.261719 122.824219 L 231.03125 121.855469 C 230.28125 122.109375 229.527344 122.367188 228.765625 122.621094 Z M 228.765625 122.621094" fill="#374f59"/><path fill-rule="nonzero" fill-opacity="1" d="M 215.164062 127.070312 L 215.378906 128.046875 C 216.132812 127.808594 216.890625 127.566406 217.652344 127.324219 L 217.433594 126.347656 C 216.675781 126.59375 215.914062 126.832031 215.164062 127.070312 Z M 215.164062 127.070312" fill="#374f59"/><path fill-rule="nonzero" fill-opacity="1" d="M 219.699219 125.621094 L 219.921875 126.59375 C 220.675781 126.351562 221.433594 126.101562 222.195312 125.855469 L 221.96875 124.882812 C 221.210938 125.132812 220.457031 125.378906 219.699219 125.621094 Z M 219.699219 125.621094" fill="#374f59"/><path fill-rule="nonzero" fill-opacity="1" d="M 237.8125 119.523438 L 238.050781 120.492188 C 238.820312 120.222656 239.574219 119.960938 240.308594 119.703125 L 240.070312 118.734375 C 239.335938 118.992188 238.582031 119.253906 237.8125 119.523438 Z M 237.8125 119.523438" fill="#374f59"/><path fill-rule="nonzero" fill-opacity="1" d="M 246.84375 116.34375 L 247.085938 117.308594 C 247.898438 117.019531 248.65625 116.75 249.347656 116.5 L 249.101562 115.535156 C 248.414062 115.785156 247.65625 116.054688 246.84375 116.34375 Z M 246.84375 116.34375" fill="#374f59"/><path fill-rule="nonzero" fill-opacity="1" d="M 253.625 113.902344 C 253.242188 114.042969 252.464844 114.324219 251.363281 114.722656 L 251.605469 115.6875 C 252.710938 115.289062 253.488281 115.003906 253.871094 114.867188 Z M 253.625 113.902344" fill="#374f59"/><path fill-rule="nonzero" fill-opacity="1" d="M 210.609375 128.476562 L 210.816406 129.453125 C 211.570312 129.226562 212.332031 128.992188 213.097656 128.757812 L 212.886719 127.78125 C 212.121094 128.015625 211.359375 128.25 210.609375 128.476562 Z M 210.609375 128.476562" fill="#374f59"/><path fill-rule="nonzero" fill-opacity="1" d="M 183.007812 127.785156 L 183.40625 128.671875 C 184.105469 128.222656 184.796875 127.742188 185.460938 127.234375 L 185.007812 126.382812 C 184.359375 126.878906 183.6875 127.347656 183.007812 127.785156 Z M 183.007812 127.785156" fill="#374f59"/><path fill-rule="nonzero" fill-opacity="1" d="M 242.332031 117.941406 L 242.570312 118.910156 C 243.351562 118.636719 244.105469 118.367188 244.828125 118.113281 L 244.589844 117.144531 C 243.867188 117.402344 243.113281 117.667969 242.332031 117.941406 Z M 242.332031 117.941406" fill="#374f59"/><path fill-rule="nonzero" fill-opacity="1" d="M 191.859375 119.0625 C 191.417969 119.761719 190.914062 120.46875 190.371094 121.15625 L 190.988281 121.847656 C 191.554688 121.132812 192.074219 120.398438 192.535156 119.667969 Z M 191.859375 119.0625" fill="#374f59"/><path fill-rule="nonzero" fill-opacity="1" d="M 192.242188 132.945312 L 192.292969 133.949219 C 192.953125 133.90625 193.75 133.800781 194.671875 133.644531 L 194.550781 132.648438 C 193.65625 132.800781 192.878906 132.898438 192.242188 132.945312 Z M 192.242188 132.945312" fill="#374f59"/><path fill-rule="nonzero" fill-opacity="1" d="M 187.519531 133.703125 C 188.289062 133.84375 189.089844 133.9375 189.902344 133.976562 L 189.9375 132.96875 C 189.15625 132.929688 188.386719 132.84375 187.648438 132.707031 Z M 187.519531 133.703125" fill="#374f59"/><path fill-rule="nonzero" fill-opacity="1" d="M 188.710938 123.074219 C 188.144531 123.671875 187.539062 124.257812 186.914062 124.816406 L 187.421875 125.621094 C 188.0625 125.046875 188.6875 124.445312 189.269531 123.828125 Z M 188.710938 123.074219" fill="#374f59"/><path fill-rule="nonzero" fill-opacity="1" d="M 206.042969 129.824219 L 206.242188 130.804688 C 206.980469 130.59375 207.75 130.367188 208.53125 130.136719 L 208.328125 129.160156 C 207.550781 129.390625 206.78125 129.613281 206.042969 129.824219 Z M 206.042969 129.824219" fill="#374f59"/><path fill-rule="nonzero" fill-opacity="1" d="M 187.492188 106.785156 C 186.695312 107.039062 185.933594 107.445312 185.238281 107.992188 L 185.699219 108.832031 C 186.324219 108.347656 187 107.984375 187.710938 107.757812 Z M 187.492188 106.785156" fill="#374f59"/><path fill-rule="nonzero" fill-opacity="1" d="M 196.863281 132.195312 L 197.011719 133.1875 C 197.730469 133.03125 198.511719 132.851562 199.335938 132.652344 L 199.164062 131.664062 C 198.347656 131.863281 197.574219 132.042969 196.863281 132.195312 Z M 196.863281 132.195312" fill="#374f59"/><path fill-rule="nonzero" fill-opacity="1" d="M 201.464844 131.085938 L 201.644531 132.070312 C 202.375 131.878906 203.148438 131.671875 203.945312 131.449219 L 203.757812 130.46875 C 202.960938 130.6875 202.1875 130.894531 201.464844 131.085938 Z M 201.464844 131.085938" fill="#374f59"/><path fill-rule="nonzero" fill-opacity="1" d="M 194.480469 108.753906 L 193.839844 109.414062 C 194.09375 109.761719 194.246094 110.117188 194.296875 110.464844 C 194.347656 110.835938 194.371094 111.21875 194.371094 111.605469 L 194.371094 111.695312 L 195.21875 111.707031 C 195.21875 111.671875 195.21875 111.640625 195.21875 111.605469 C 195.21875 111.164062 195.1875 110.722656 195.128906 110.300781 C 195.054688 109.765625 194.835938 109.246094 194.480469 108.753906 Z M 194.480469 108.753906" fill="#374f59"/><path fill-rule="nonzero" fill-opacity="1" d="M 193.105469 116.773438 L 193.847656 117.257812 C 194.257812 116.363281 194.582031 115.46875 194.808594 114.601562 L 194.003906 114.300781 C 193.792969 115.105469 193.492188 115.9375 193.105469 116.773438 Z M 193.105469 116.773438" fill="#374f59"/></svg>